<svg width="33" height="33" viewBox="0 0 33 33" fill="none" xmlns="http://www.w3.org/2000/svg">
<rect x="0.418945" y="0.161255" width="32.2581" height="32.2581" rx="6.45161" fill="#1570BE"/>
<path d="M22.4017 23.387C22.2386 23.3871 22.0771 23.3549 21.9265 23.2924C21.7759 23.2299 21.6392 23.1382 21.5241 23.0227L9.81552 11.3142C9.70016 11.1988 9.60865 11.0619 9.54622 10.9112C9.48379 10.7605 9.45166 10.5989 9.45166 10.4358C9.45166 10.2726 9.48379 10.1111 9.54622 9.96037C9.60865 9.80965 9.70016 9.6727 9.81552 9.55734C9.93088 9.44198 10.0678 9.35048 10.2185 9.28805C10.3693 9.22561 10.5308 9.19348 10.6939 9.19348C10.8571 9.19348 11.0186 9.22561 11.1694 9.28805C11.3201 9.35048 11.457 9.44198 11.5724 9.55734L23.2793 21.2659C23.4525 21.4398 23.5704 21.6611 23.6181 21.9018C23.6658 22.1426 23.6412 22.3921 23.5473 22.6189C23.4535 22.8457 23.2946 23.0397 23.0907 23.1764C22.8869 23.3131 22.6471 23.3864 22.4017 23.387Z" fill="white"/>
<path d="M9.45196 22.1436C9.45192 21.9805 9.48408 21.8191 9.5466 21.6685C9.60911 21.5179 9.70075 21.3811 9.81625 21.266L21.5248 9.55746C21.6401 9.4421 21.7771 9.3506 21.9278 9.28817C22.0785 9.22574 22.2401 9.1936 22.4032 9.1936C22.5664 9.1936 22.7279 9.22574 22.8786 9.28817C23.0293 9.3506 23.1663 9.4421 23.2816 9.55746C23.397 9.67282 23.4885 9.80977 23.5509 9.96049C23.6134 10.1112 23.6455 10.2728 23.6455 10.4359C23.6455 10.599 23.6134 10.7606 23.5509 10.9113C23.4885 11.062 23.397 11.199 23.2816 11.3143L11.5731 23.0212C11.3992 23.1944 11.1779 23.3123 10.9372 23.36C10.6964 23.4077 10.4469 23.3831 10.2201 23.2893C9.99328 23.1954 9.79931 23.0366 9.66262 22.8327C9.52593 22.6288 9.45264 22.3891 9.45196 22.1436Z" fill="white"/>
</svg>
