<svg width="33" height="33" viewBox="0 0 33 33" fill="none" xmlns="http://www.w3.org/2000/svg">
<path d="M31.1608 4.99996H2.12853C1.70076 4.99996 1.29051 5.16989 0.988033 5.47237C0.685555 5.77485 0.515625 6.1851 0.515625 6.61287C0.515625 7.04064 0.685555 7.45088 0.988033 7.75336C1.29051 8.05584 1.70076 8.22577 2.12853 8.22577H5.35433V27.5806C5.35433 28.8639 5.86413 30.0947 6.77156 31.0021C7.67899 31.9095 8.90974 32.4193 10.193 32.4193H23.0963C24.3796 32.4193 25.6103 31.9095 26.5178 31.0021C27.4252 30.0947 27.935 28.8639 27.935 27.5806V8.22577H31.1608C31.5886 8.22577 31.9988 8.05584 32.3013 7.75336C32.6038 7.45088 32.7737 7.04064 32.7737 6.61287C32.7737 6.1851 32.6038 5.77485 32.3013 5.47237C31.9988 5.16989 31.5886 4.99996 31.1608 4.99996ZM15.0318 22.7419C15.0318 23.1697 14.8618 23.5799 14.5593 23.8824C14.2569 24.1849 13.8466 24.3548 13.4188 24.3548C12.9911 24.3548 12.5808 24.1849 12.2784 23.8824C11.9759 23.5799 11.8059 23.1697 11.8059 22.7419V14.6774C11.8059 14.2496 11.9759 13.8394 12.2784 13.5369C12.5808 13.2344 12.9911 13.0645 13.4188 13.0645C13.8466 13.0645 14.2569 13.2344 14.5593 13.5369C14.8618 13.8394 15.0318 14.2496 15.0318 14.6774V22.7419ZM21.4834 22.7419C21.4834 23.1697 21.3134 23.5799 21.011 23.8824C20.7085 24.1849 20.2982 24.3548 19.8705 24.3548C19.4427 24.3548 19.0324 24.1849 18.73 23.8824C18.4275 23.5799 18.2576 23.1697 18.2576 22.7419V14.6774C18.2576 14.2496 18.4275 13.8394 18.73 13.5369C19.0324 13.2344 19.4427 13.0645 19.8705 13.0645C20.2982 13.0645 20.7085 13.2344 21.011 13.5369C21.3134 13.8394 21.4834 14.2496 21.4834 14.6774V22.7419ZM13.4188 3.38706H19.8705C20.2982 3.38706 20.7085 3.21713 21.011 2.91465C21.3134 2.61217 21.4834 2.20193 21.4834 1.77416C21.4834 1.34639 21.3134 0.936141 21.011 0.633663C20.7085 0.331185 20.2982 0.161255 19.8705 0.161255H13.4188C12.9911 0.161255 12.5808 0.331185 12.2784 0.633663C11.9759 0.936141 11.8059 1.34639 11.8059 1.77416C11.8059 2.20193 11.9759 2.61217 12.2784 2.91465C12.5808 3.21713 12.9911 3.38706 13.4188 3.38706Z" fill="#1570BE"/>
</svg>
