<svg width="33" height="32" viewBox="0 0 33 32" fill="none" xmlns="http://www.w3.org/2000/svg">
<path d="M23.2626 17.9352C22.9467 17.9092 22.6334 18.0096 22.3914 18.2143C22.1494 18.4189 21.9984 18.7112 21.9716 19.0271C21.8658 20.2758 21.7347 21.362 21.6201 21.9328V21.9398C21.2817 23.685 19.6285 25.41 17.9331 25.7893C17.7863 25.8195 17.6388 25.8485 17.492 25.8762C17.618 24.2551 17.7119 22.1823 17.6993 20.5839C17.7182 18.1419 17.4845 14.3818 17.2772 12.8854C16.9048 10.1303 15.2107 7.07458 13.3363 5.77606L13.3249 5.7685C12.0217 4.88809 10.625 4.15466 9.16038 3.58163C8.89913 3.48041 8.64102 3.3859 8.38606 3.29812C9.77643 3.08315 11.1816 2.97782 12.5884 2.98309C14.5038 2.98309 16.2521 3.15762 17.9331 3.50666C19.6285 3.88468 21.2817 5.61099 21.6201 7.3562V7.36314C21.7341 7.93017 21.8651 9.01636 21.971 10.2613C21.9979 10.5777 22.1494 10.8705 22.3921 11.0752C22.6349 11.2799 22.949 11.3798 23.2654 11.3529C23.5818 11.326 23.8746 11.1745 24.0793 10.9317C24.284 10.689 24.3839 10.3748 24.357 10.0584C24.2423 8.71079 24.1012 7.55845 23.9689 6.89565C23.4465 4.21104 21.0707 1.74822 18.4421 1.16606L18.427 1.16291C16.5797 0.779844 14.6707 0.592092 12.584 0.588311C10.4973 0.584531 8.59587 0.777323 6.74859 1.16354L6.73284 1.16669C5.5597 1.4269 4.4376 2.06198 3.50766 2.92324C3.25633 3.11275 3.03666 3.34093 2.85683 3.59927C2.03526 4.5582 1.43861 5.7055 1.20675 6.89565C0.916306 8.35167 0.588055 12.1275 0.613256 14.6477C0.599396 15.9997 0.686971 17.7134 0.816759 19.2362C0.886064 20.2128 0.964819 21.0634 1.04042 21.609C1.41278 24.3641 3.10696 27.4198 4.98196 28.7184L4.99267 28.7259C6.29621 29.6062 7.69309 30.3396 9.15786 30.9128C10.641 31.4886 12.0019 31.8377 13.3193 31.9801H13.3306C15.101 32.1382 16.7102 30.6015 17.1972 28.3548C17.6092 28.2893 18.0177 28.2147 18.4226 28.1312L18.4377 28.128C21.0669 27.5459 23.4421 25.083 23.9644 22.3984C24.0968 21.7344 24.2385 20.5795 24.3532 19.2287C24.3799 18.9126 24.28 18.5988 24.0755 18.3563C23.871 18.1137 23.5786 17.9623 23.2626 17.9352Z" fill="#1570BE"/>
<path d="M32.877 14.6458C32.877 14.6061 32.877 14.5664 32.8707 14.5267C32.871 14.5242 32.871 14.5217 32.8707 14.5192C32.8669 14.4819 32.8612 14.4449 32.8537 14.4083V14.4001C32.8064 14.1726 32.6936 13.9639 32.5292 13.7997L28.2449 9.5116C28.0204 9.28703 27.7159 9.16083 27.3984 9.16077C27.0808 9.16071 26.7763 9.28679 26.5517 9.51129C26.3271 9.73578 26.2009 10.0403 26.2008 10.3578C26.2008 10.6754 26.3269 10.9799 26.5514 11.2045L28.7987 13.4512H20.5345C20.217 13.4512 19.9125 13.5774 19.688 13.8019C19.4635 14.0264 19.3374 14.3308 19.3374 14.6483C19.3374 14.9658 19.4635 15.2703 19.688 15.4948C19.9125 15.7193 20.217 15.8454 20.5345 15.8454H28.788L26.5425 18.0909C26.3188 18.3155 26.1934 18.6198 26.1937 18.9368C26.194 19.2539 26.3201 19.5578 26.5443 19.782C26.7685 20.0062 27.0725 20.1323 27.3895 20.1326C27.7066 20.133 28.0108 20.0075 28.2355 19.7838L32.5002 15.519C32.6549 15.3742 32.768 15.1906 32.8278 14.9873C32.8386 14.951 32.8475 14.9142 32.8543 14.877C32.8546 14.8718 32.8546 14.8665 32.8543 14.8613C32.86 14.8291 32.8656 14.7983 32.8688 14.7642C32.8719 14.7302 32.8688 14.7151 32.8688 14.6912V14.6496L32.877 14.6458Z" fill="#1570BE"/>
</svg>
