<svg width="30" height="31" viewBox="0 0 30 31" fill="none" xmlns="http://www.w3.org/2000/svg">
<path d="M25.3125 27C25.1893 27.0002 25.0674 26.976 24.9536 26.9289C24.8399 26.8817 24.7366 26.8125 24.6498 26.7252L4.02477 6.10019C3.85638 5.92295 3.76388 5.68693 3.76701 5.44247C3.77014 5.198 3.86865 4.96443 4.04152 4.79155C4.2144 4.61868 4.44797 4.52017 4.69244 4.51704C4.9369 4.51391 5.17291 4.60641 5.35016 4.7748L25.9752 25.3998C26.1062 25.5309 26.1954 25.6979 26.2315 25.8797C26.2677 26.0615 26.2491 26.25 26.1782 26.4212C26.1073 26.5925 25.9872 26.7388 25.8331 26.8419C25.679 26.9449 25.4978 26.9999 25.3125 27V27ZM14.5312 19.2568L11.4966 16.2223C11.4793 16.205 11.4569 16.1937 11.4327 16.1898C11.4085 16.1859 11.3838 16.1897 11.3618 16.2006C11.3399 16.2115 11.322 16.229 11.3105 16.2507C11.2991 16.2723 11.2947 16.297 11.298 16.3213C11.4205 17.1086 11.7902 17.8365 12.3536 18.3999C12.917 18.9633 13.6449 19.333 14.4322 19.4555C14.4565 19.4588 14.4811 19.4544 14.5028 19.4429C14.5244 19.4315 14.542 19.4135 14.5529 19.3916C14.5638 19.3697 14.5676 19.3449 14.5637 19.3208C14.5598 19.2966 14.5485 19.2742 14.5312 19.2568ZM15.4687 12.2432L18.508 15.2812C18.5253 15.2987 18.5477 15.3103 18.572 15.3143C18.5963 15.3184 18.6213 15.3146 18.6433 15.3037C18.6654 15.2927 18.6834 15.2751 18.6949 15.2533C18.7064 15.2315 18.7107 15.2066 18.7072 15.1822C18.585 14.3939 18.2151 13.6649 17.651 13.1008C17.0869 12.5367 16.3578 12.1667 15.5695 12.0445C15.5451 12.0408 15.5201 12.0448 15.4981 12.0561C15.4762 12.0674 15.4583 12.0853 15.4471 12.1073C15.4359 12.1293 15.432 12.1543 15.4359 12.1787C15.4398 12.2031 15.4513 12.2257 15.4687 12.2432V12.2432Z" fill="#313131"/>
<path d="M28.7695 16.7672C28.9635 16.4627 29.0661 16.109 29.065 15.748C29.064 15.387 28.9594 15.0338 28.7637 14.7305C27.2133 12.3328 25.2018 10.2961 22.9471 8.84004C20.4492 7.22754 17.6953 6.375 14.9812 6.375C13.5504 6.37697 12.1294 6.61025 10.773 7.06582C10.7351 7.07845 10.701 7.10058 10.674 7.13011C10.647 7.15964 10.628 7.19559 10.6189 7.23454C10.6097 7.27348 10.6107 7.31412 10.6216 7.35259C10.6326 7.39105 10.6533 7.42607 10.6816 7.4543L13.4496 10.2223C13.4784 10.2511 13.5141 10.2719 13.5534 10.2827C13.5926 10.2935 13.634 10.2939 13.6734 10.2838C14.6117 10.0551 15.593 10.0719 16.5228 10.3324C17.4527 10.593 18.2999 11.0885 18.9827 11.7714C19.6656 12.4542 20.1611 13.3014 20.4217 14.2313C20.6822 15.1611 20.699 16.1424 20.4703 17.0807C20.4604 17.12 20.4608 17.1613 20.4716 17.2004C20.4824 17.2395 20.5031 17.2752 20.5318 17.3039L24.5133 21.2883C24.5547 21.3298 24.6102 21.3542 24.6687 21.3568C24.7273 21.3594 24.7847 21.34 24.8297 21.3023C26.3623 19.996 27.6903 18.4673 28.7695 16.7672ZM15 21.375C14.1485 21.375 13.3081 21.1818 12.5421 20.8097C11.7762 20.4377 11.1047 19.8966 10.5783 19.2273C10.0519 18.558 9.68431 17.7779 9.50327 16.9459C9.32224 16.1138 9.33247 15.2515 9.5332 14.424C9.54315 14.3847 9.54272 14.3434 9.53193 14.3043C9.52115 14.2651 9.50038 14.2295 9.47168 14.2008L5.55527 10.2826C5.51374 10.241 5.45811 10.2166 5.3994 10.2141C5.34069 10.2116 5.28319 10.2312 5.23828 10.2691C3.80918 11.4885 2.48437 12.9721 1.27324 14.7059C1.06124 15.0101 0.94448 15.3706 0.937803 15.7414C0.931126 16.1122 1.03483 16.4766 1.23574 16.7883C2.7832 19.21 4.77422 21.2496 6.99433 22.6857C9.4957 24.3047 12.1828 25.125 14.9812 25.125C16.4265 25.1211 17.8623 24.8928 19.2375 24.4482C19.2758 24.436 19.3103 24.4141 19.3377 24.3847C19.3651 24.3553 19.3845 24.3193 19.394 24.2802C19.4034 24.2411 19.4027 24.2003 19.3918 24.1616C19.3809 24.1229 19.3603 24.0876 19.3318 24.0592L16.5504 21.2783C16.5217 21.2496 16.486 21.2288 16.4469 21.2181C16.4078 21.2073 16.3665 21.2068 16.3271 21.2168C15.8926 21.3221 15.4471 21.3752 15 21.375V21.375Z" fill="#313131"/>
</svg>
