<svg width="785" height="816" viewBox="0 0 785 816" fill="none" xmlns="http://www.w3.org/2000/svg">
<rect x="-6.10352e-05" width="785" height="816" rx="30" fill="#ECF4FF"/>
<g clip-path="url(#clip0_741_110)">
<path d="M802 639.783H-18V640.193H802V639.783Z" fill="#EBEBEB"/>
<path d="M719.836 666.17H665.519V666.58H719.836V666.17Z" fill="#EBEBEB"/>
<path d="M525.201 670.631H510.949V671.041H525.201V670.631Z" fill="#EBEBEB"/>
<path d="M663.879 650.951H632.408V651.361H663.879V650.951Z" fill="#EBEBEB"/>
<path d="M138.866 653.706H68.0344V654.116H138.866V653.706Z" fill="#EBEBEB"/>
<path d="M163.86 653.706H153.478V654.116H163.86V653.706Z" fill="#EBEBEB"/>
<path d="M351.246 660.627H197.611V661.037H351.246V660.627Z" fill="#EBEBEB"/>
<path d="M370.696 566.639H54.0288C48.8628 566.639 44.6644 562.44 44.6644 557.274V112.129C44.6644 106.963 48.8628 102.765 54.0288 102.765H370.713C375.879 102.765 380.077 106.963 380.077 112.129V557.274C380.061 562.44 375.862 566.639 370.696 566.639ZM54.0288 103.175C49.0924 103.175 45.0744 107.193 45.0744 112.129V557.274C45.0744 562.211 49.0924 566.229 54.0288 566.229H370.713C375.649 566.229 379.667 562.211 379.667 557.274V112.129C379.667 107.193 375.649 103.175 370.713 103.175H54.0288Z" fill="#EBEBEB"/>
<path d="M725.428 566.639H408.744C403.578 566.639 399.38 562.44 399.38 557.274V112.129C399.38 106.963 403.578 102.765 408.744 102.765H725.428C730.594 102.765 734.793 106.963 734.793 112.129V557.274C734.793 562.44 730.594 566.639 725.428 566.639ZM408.744 103.175C403.808 103.175 399.79 107.193 399.79 112.129V557.274C399.79 562.211 403.808 566.229 408.744 566.229H725.428C730.365 566.229 734.383 562.211 734.383 557.274V112.129C734.383 107.193 730.365 103.175 725.428 103.175H408.744Z" fill="#EBEBEB"/>
<path d="M379.438 297.794H146.59V639.192H379.438V297.794Z" fill="#F0F0F0"/>
<path d="M371.205 308.552H154.807V371.61H371.205V308.552Z" fill="#E0E0E0"/>
<path d="M167.107 318.753H154.807V371.594H167.107V318.753Z" fill="#EBEBEB"/>
<path d="M226.557 318.753H214.257V371.594H226.557V318.753Z" fill="#EBEBEB"/>
<path d="M294.025 317.457L281.903 319.546L290.875 371.621L302.997 369.532L294.025 317.457Z" fill="#EBEBEB"/>
<path d="M182.342 325.723H170.042V371.61H182.342V325.723Z" fill="#EBEBEB"/>
<path d="M210.6 325.723H198.3V371.61H210.6V325.723Z" fill="#EBEBEB"/>
<path d="M281.923 325.723H269.623V371.61H281.923V325.723Z" fill="#EBEBEB"/>
<path d="M242.705 324.151L230.697 326.819L240.65 371.614L252.658 368.947L242.705 324.151Z" fill="#EBEBEB"/>
<path d="M192.97 316.129H186.82V371.594H192.97V316.129Z" fill="#EBEBEB"/>
<path d="M266.081 316.129H259.931V371.594H266.081V316.129Z" fill="#EBEBEB"/>
<path d="M154.815 444.639H371.213V381.581H154.815V444.639Z" fill="#E0E0E0"/>
<path d="M358.9 444.63H371.2V391.789H358.9V444.63Z" fill="#EBEBEB"/>
<path d="M299.472 444.63H311.772V391.789H299.472V444.63Z" fill="#EBEBEB"/>
<path d="M222.989 442.553L235.111 444.642L244.084 392.567L231.962 390.479L222.989 442.553Z" fill="#EBEBEB"/>
<path d="M343.673 444.64H355.973V398.753H343.673V444.64Z" fill="#EBEBEB"/>
<path d="M315.421 444.64H327.721V398.753H315.421V444.64Z" fill="#EBEBEB"/>
<path d="M244.11 444.64H256.41V398.753H244.11V444.64Z" fill="#EBEBEB"/>
<path d="M273.377 441.97L285.384 444.638L295.337 399.843L283.33 397.175L273.377 441.97Z" fill="#EBEBEB"/>
<path d="M333.045 444.63H339.195V389.165H333.045V444.63Z" fill="#EBEBEB"/>
<path d="M259.939 444.63H266.089V389.165H259.939V444.63Z" fill="#EBEBEB"/>
<path d="M167.107 391.798H154.807V444.639H167.107V391.798Z" fill="#EBEBEB"/>
<path d="M182.342 398.752H170.042V444.639H182.342V398.752Z" fill="#EBEBEB"/>
<path d="M210.6 398.752H198.3V444.639H210.6V398.752Z" fill="#EBEBEB"/>
<path d="M192.97 389.174H186.82V444.639H192.97V389.174Z" fill="#EBEBEB"/>
<path d="M371.205 454.627H154.807V517.685H371.205V454.627Z" fill="#E0E0E0"/>
<path d="M291.32 464.828H279.02V517.668H291.32V464.828Z" fill="#EBEBEB"/>
<path d="M358.784 463.539L346.662 465.628L355.634 517.703L367.756 515.614L358.784 463.539Z" fill="#EBEBEB"/>
<path d="M247.106 471.798H234.806V517.685H247.106V471.798Z" fill="#EBEBEB"/>
<path d="M275.363 471.798H263.063V517.685H275.363V471.798Z" fill="#EBEBEB"/>
<path d="M346.687 471.798H334.387V517.685H346.687V471.798Z" fill="#EBEBEB"/>
<path d="M307.47 470.224L295.463 472.892L305.416 517.687L317.423 515.019L307.47 470.224Z" fill="#EBEBEB"/>
<path d="M257.733 462.204H251.583V517.668H257.733V462.204Z" fill="#EBEBEB"/>
<path d="M330.844 462.204H324.694V517.668H330.844V462.204Z" fill="#EBEBEB"/>
<path d="M217.362 463.533L205.24 465.621L214.212 517.696L226.334 515.607L217.362 463.533Z" fill="#EBEBEB"/>
<path d="M205.253 471.798H192.953V517.685H205.253V471.798Z" fill="#EBEBEB"/>
<path d="M166.036 470.226L154.029 472.894L163.982 517.689L175.989 515.021L166.036 470.226Z" fill="#EBEBEB"/>
<path d="M189.427 462.204H183.277V517.668H189.427V462.204Z" fill="#EBEBEB"/>
<path d="M106.402 640.101H146.582L146.582 297.816H106.402L106.402 640.101Z" fill="#E0E0E0"/>
<path d="M515.722 631.156H481.593L499.535 485.016C500.289 478.833 505.931 473.815 512.114 473.815H523.84H661.042L639.214 631.156H515.722Z" fill="#F5F5F5"/>
<path d="M623.962 631.156H658.09L676.032 485.016C676.786 478.833 672.391 473.815 666.208 473.815H654.482C648.299 473.815 642.658 478.833 641.903 485.016L623.962 631.156Z" fill="#F0F0F0"/>
<path d="M611.399 630.992L617.582 560.308C617.861 557.16 620.304 554.618 623.437 554.208L625.979 553.88C630.194 553.338 633.474 549.944 633.834 545.696L634.966 532.806C635.425 527.525 631.26 522.982 625.962 522.982H683.002C688.299 522.982 692.464 527.525 692.005 532.806L690.874 545.696C690.496 549.927 687.233 553.338 683.018 553.88L680.476 554.208C677.327 554.601 674.9 557.143 674.621 560.308L668.438 630.992C667.996 636.142 663.666 640.094 658.5 640.094H601.461C606.627 640.094 610.94 636.142 611.399 630.992Z" fill="#E6E6E6"/>
<path d="M454.418 542.613C453.451 531.51 444.152 522.998 433.016 522.998H460.618H482.676C493.811 522.998 503.11 531.51 504.078 542.613L508.981 598.635H459.322L454.418 542.613Z" fill="#E6E6E6"/>
<path d="M410.958 522.998H433.016C444.152 522.998 453.451 531.51 454.418 542.613L459.322 598.635H577.599L582.502 542.613C583.47 531.51 592.769 522.998 603.904 522.998H625.962C631.26 522.998 635.425 527.541 634.966 532.822L633.834 545.712C633.457 549.944 630.194 553.355 625.979 553.896L623.437 554.224C620.288 554.618 617.861 557.16 617.582 560.325L611.399 631.009C610.956 636.158 606.627 640.111 601.461 640.111H435.46C430.294 640.111 425.964 636.158 425.522 631.009L419.339 560.325C419.06 557.176 416.616 554.634 413.484 554.224L410.942 553.896C406.727 553.355 403.447 549.96 403.086 545.712L401.955 532.822C401.496 527.541 405.645 522.998 410.958 522.998Z" fill="#F0F0F0"/>
<path d="M149.542 280.738C149.542 280.738 147.722 268.766 156.463 261.074C165.204 253.399 164.434 248.823 161.941 248.233C159.448 247.642 157.136 255.318 153.298 257.433C153.298 257.433 153.183 246.494 157.07 242.46C160.973 238.426 163.023 228.044 159.3 227.864C155.594 227.684 155.2 234.03 154.43 238.54C153.659 243.05 149.526 249.381 149.526 249.381C149.526 249.381 148.722 239.59 146.197 235.556C143.671 231.521 150.395 222.304 147.804 218.27C145.213 214.236 140.604 221.911 140.982 230.554C141.359 239.196 147.132 248.413 145.787 257.433C145.787 257.433 143.245 251.103 140.965 250.529C138.686 249.955 136.373 245.756 134.848 244.215C133.306 242.657 131.388 248.036 134.848 253.038C138.308 258.04 147.132 271.39 145.787 282.181L149.542 280.738Z" fill="#E6E6E6"/>
<path d="M154.758 275.293L157.611 293.251C158.497 298.794 154.216 303.812 148.591 303.812H145.541C139.932 303.812 135.652 298.794 136.521 293.251L139.374 275.293H154.758Z" fill="#E6E6E6"/>
<path d="M326.488 300.286H335.393V261.992H326.488V300.286Z" fill="#EBEBEB"/>
<path d="M283.421 300.286H292.326V261.992H283.421V300.286Z" fill="#EBEBEB"/>
<path d="M228.001 298.778L236.777 300.29L243.28 262.552L234.504 261.04L228.001 298.778Z" fill="#EBEBEB"/>
<path d="M315.449 300.282H324.354V267.039H315.449V300.282Z" fill="#EBEBEB"/>
<path d="M294.981 300.282H303.886V267.039H294.981V300.282Z" fill="#EBEBEB"/>
<path d="M243.291 300.282H252.196V267.039H243.291V300.282Z" fill="#EBEBEB"/>
<path d="M264.509 298.355L273.202 300.286L280.412 267.835L271.719 265.903L264.509 298.355Z" fill="#EBEBEB"/>
<path d="M307.741 300.288H312.202V260.091H307.741V300.288Z" fill="#EBEBEB"/>
<path d="M254.756 300.288H259.217V260.091H254.756V300.288Z" fill="#EBEBEB"/>
<path d="M222.998 269.897H179.587V299.86H222.998V269.897Z" fill="#EBEBEB"/>
<path d="M371.877 282.164H335.518V304.534H371.877V282.164Z" fill="#EBEBEB"/>
<path d="M363.382 262.501H345.194V284.87H363.382V262.501Z" fill="#EBEBEB"/>
<path d="M667.208 232.899H623.962V413.102H667.208V232.899Z" fill="#E0E0E0"/>
<path d="M500.828 413.586H662.565V232.907L500.828 232.907V413.586Z" fill="#E0E0E0"/>
<path d="M495.616 413.586H663.421V232.907L495.616 232.907V413.586Z" fill="#F0F0F0"/>
<path d="M502.791 405.29H656.524V238.666L502.791 238.666V405.29Z" fill="white"/>
<path d="M502.783 405.29H505.636V238.666H502.783V405.29Z" fill="#E0E0E0"/>
<path d="M505.157 358.484V362.978H656.922V358.484H505.157Z" fill="#E0E0E0"/>
<path d="M502.79 358.488H658.934V350.945H502.79V358.488Z" fill="#F0F0F0"/>
<path opacity="0.3" d="M392 713.845C567.615 713.845 709.98 705.534 709.98 695.28C709.98 685.027 567.615 676.716 392 676.716C216.385 676.716 74.0204 685.027 74.0204 695.28C74.0204 705.534 216.385 713.845 392 713.845Z" fill="#AED1FF"/>
<path d="M509.998 632.764H216.586C209.96 632.764 204.581 627.384 204.581 620.759V275.276C204.581 268.651 209.96 263.272 216.586 263.272H510.014C516.64 263.272 522.019 268.651 522.019 275.276V620.775C522.003 627.401 516.64 632.764 509.998 632.764Z" fill="#1877F2"/>
<path opacity="0.6" d="M510.417 632.764H217.005C210.379 632.764 205 627.384 205 620.759V275.276C205 268.651 210.379 263.272 217.005 263.272H510.434C517.059 263.272 522.438 268.651 522.438 275.276V620.775C522.422 627.401 517.059 632.764 510.417 632.764Z" fill="white"/>
<path d="M470.589 432.716H256.011V469.452H470.589V432.716Z" fill="white"/>
<g opacity="0.4">
<path d="M275.199 454.676V455.644H267.754V445.115H274.97V446.082H268.869V449.822H274.314V450.773H268.869V454.676H275.199Z" fill="#263238"/>
<path d="M276.692 451.084H280.628V452.019H276.692V451.084Z" fill="#263238"/>
<path d="M296.076 451.052V455.644H295.01V451.166C295.01 449.494 294.174 448.641 292.747 448.641C291.124 448.641 290.107 449.69 290.107 451.494V455.644H289.041V451.166C289.041 449.494 288.204 448.641 286.761 448.641C285.154 448.641 284.121 449.69 284.121 451.494V455.644H283.055V447.739H284.072V449.182C284.629 448.231 285.646 447.673 286.974 447.673C288.286 447.673 289.303 448.231 289.779 449.346C290.353 448.329 291.484 447.673 292.911 447.673C294.814 447.657 296.076 448.772 296.076 451.052Z" fill="#263238"/>
<path d="M304.965 450.724V455.627H303.948V454.397C303.473 455.217 302.538 455.709 301.226 455.709C299.438 455.709 298.34 454.774 298.34 453.413C298.34 452.2 299.127 451.166 301.39 451.166H303.899V450.691C303.899 449.33 303.128 448.608 301.652 448.608C300.636 448.608 299.668 448.969 299.012 449.543L298.536 448.739C299.34 448.067 300.504 447.673 301.751 447.673C303.801 447.657 304.965 448.69 304.965 450.724ZM303.883 453.249V451.954H301.406C299.865 451.954 299.373 452.56 299.373 453.364C299.373 454.282 300.111 454.856 301.374 454.856C302.587 454.856 303.473 454.299 303.883 453.249Z" fill="#263238"/>
<path d="M307.622 445.23C307.622 444.82 307.966 444.475 308.409 444.475C308.852 444.475 309.196 444.803 309.196 445.213C309.196 445.656 308.868 446 308.409 446C307.966 445.984 307.622 445.64 307.622 445.23ZM307.868 447.722H308.934V455.627H307.868V447.722Z" fill="#263238"/>
<path d="M311.902 444.475H312.968V455.627H311.902V444.475Z" fill="#263238"/>
</g>
<path d="M470.589 482.917H256.011V519.653H470.589V482.917Z" fill="white"/>
<g opacity="0.4">
<path d="M275.986 498.956C275.986 501.203 274.363 502.548 271.69 502.548H268.869V505.877H267.754V495.348H271.69C274.363 495.348 275.986 496.709 275.986 498.956ZM274.871 498.956C274.871 497.267 273.756 496.316 271.657 496.316H268.852V501.58H271.657C273.772 501.58 274.871 500.612 274.871 498.956Z" fill="#263238"/>
<path d="M284.072 500.973V505.877H283.055V504.647C282.579 505.467 281.644 505.959 280.332 505.959C278.545 505.959 277.446 505.024 277.446 503.663C277.446 502.449 278.233 501.416 280.496 501.416H283.006V500.94C283.006 499.579 282.235 498.858 280.759 498.858C279.742 498.858 278.774 499.218 278.135 499.792L277.659 498.989C278.463 498.316 279.627 497.923 280.874 497.923C282.907 497.906 284.072 498.923 284.072 500.973ZM283.006 503.499V502.203H280.529C278.988 502.203 278.496 502.81 278.496 503.614C278.496 504.532 279.234 505.106 280.496 505.106C281.694 505.106 282.579 504.532 283.006 503.499Z" fill="#263238"/>
<path d="M285.876 504.975L286.351 504.138C286.991 504.63 288.057 505.024 289.156 505.024C290.664 505.024 291.271 504.516 291.271 503.728C291.271 501.662 286.138 503.286 286.138 500.17C286.138 498.874 287.253 497.906 289.27 497.906C290.287 497.906 291.402 498.185 292.075 498.644L291.616 499.497C290.927 499.022 290.09 498.825 289.287 498.825C287.86 498.825 287.22 499.382 287.22 500.137C287.22 502.269 292.354 500.662 292.354 503.696C292.354 505.057 291.156 505.959 289.09 505.959C287.778 505.959 286.515 505.532 285.876 504.975Z" fill="#263238"/>
<path d="M293.223 504.975L293.698 504.138C294.338 504.63 295.404 505.024 296.503 505.024C298.012 505.024 298.618 504.516 298.618 503.728C298.618 501.662 293.485 503.286 293.485 500.17C293.485 498.874 294.6 497.906 296.618 497.906C297.634 497.906 298.75 498.185 299.422 498.644L298.963 499.497C298.274 499.022 297.438 498.825 296.634 498.825C295.207 498.825 294.568 499.382 294.568 500.137C294.568 502.269 299.701 500.662 299.701 503.696C299.701 505.057 298.504 505.959 296.437 505.959C295.142 505.959 293.879 505.532 293.223 504.975Z" fill="#263238"/>
<path d="M313.132 497.972L310.148 505.877H309.147L306.654 499.399L304.162 505.877H303.161L300.176 497.972H301.193L303.67 504.696L306.212 497.972H307.13L309.656 504.696L312.165 497.972H313.132Z" fill="#263238"/>
<path d="M313.723 501.924C313.723 499.579 315.445 497.906 317.757 497.906C320.07 497.906 321.775 499.579 321.775 501.924C321.775 504.27 320.07 505.959 317.757 505.959C315.445 505.959 313.723 504.27 313.723 501.924ZM320.693 501.924C320.693 500.071 319.446 498.841 317.757 498.841C316.068 498.841 314.805 500.071 314.805 501.924C314.805 503.778 316.068 505.008 317.757 505.008C319.446 505.008 320.693 503.778 320.693 501.924Z" fill="#263238"/>
<path d="M327.942 497.906V498.94C327.86 498.94 327.761 498.923 327.679 498.923C326.023 498.923 325.022 499.973 325.022 501.842V505.877H323.956V497.972H324.973V499.514C325.482 498.464 326.482 497.906 327.942 497.906Z" fill="#263238"/>
<path d="M337.011 494.708V505.86H335.994V504.302C335.354 505.368 334.256 505.942 332.944 505.942C330.68 505.942 329.008 504.302 329.008 501.908C329.008 499.514 330.697 497.89 332.944 497.89C334.206 497.89 335.289 498.431 335.945 499.448V494.692H337.011V494.708ZM335.961 501.924C335.961 500.071 334.698 498.841 333.026 498.841C331.336 498.841 330.074 500.071 330.074 501.924C330.074 503.778 331.336 505.008 333.026 505.008C334.698 505.008 335.961 503.778 335.961 501.924Z" fill="#263238"/>
</g>
<path opacity="0.2" d="M470.589 557.127H256.011V593.863H470.589V557.127Z" fill="black"/>
<g opacity="0.5">
<path d="M308.196 540.235H304.686L303.932 541.908H303.243L306.113 535.626H306.769L309.639 541.908H308.934L308.196 540.235ZM307.95 539.71L306.441 536.332L304.932 539.71H307.95Z" fill="black"/>
<path d="M310.558 535.249H311.197V541.908H310.558V535.249Z" fill="black"/>
<path d="M315.363 537.168V537.791C315.314 537.791 315.248 537.775 315.215 537.775C314.231 537.775 313.624 538.398 313.624 539.513V541.924H312.985V537.201H313.592V538.119C313.887 537.496 314.477 537.168 315.363 537.168Z" fill="black"/>
<path d="M320.578 539.759H316.626C316.691 540.743 317.446 541.399 318.479 541.399C319.053 541.399 319.561 541.186 319.922 540.776L320.283 541.186C319.856 541.694 319.2 541.957 318.462 541.957C316.986 541.957 315.986 540.956 315.986 539.546C315.986 538.152 316.97 537.152 318.298 537.152C319.627 537.152 320.594 538.136 320.594 539.546C320.594 539.612 320.578 539.677 320.578 539.759ZM316.626 539.284H319.971C319.889 538.365 319.217 537.709 318.298 537.709C317.38 537.709 316.708 538.349 316.626 539.284Z" fill="black"/>
<path d="M325.318 538.988V541.924H324.711V541.186C324.416 541.678 323.858 541.973 323.087 541.973C322.021 541.973 321.365 541.416 321.365 540.596C321.365 539.874 321.824 539.251 323.186 539.251H324.694V538.972C324.694 538.168 324.235 537.726 323.35 537.726C322.743 537.726 322.169 537.939 321.775 538.283L321.48 537.808C321.956 537.398 322.661 537.168 323.399 537.168C324.629 537.168 325.318 537.775 325.318 538.988ZM324.694 540.497V539.726H323.218C322.3 539.726 322.005 540.087 322.005 540.579C322.005 541.12 322.448 541.465 323.202 541.465C323.907 541.465 324.432 541.12 324.694 540.497Z" fill="black"/>
<path d="M331.386 535.249V541.908H330.779V540.973C330.385 541.612 329.729 541.957 328.958 541.957C327.614 541.957 326.597 540.973 326.597 539.546C326.597 538.119 327.597 537.152 328.958 537.152C329.713 537.152 330.352 537.48 330.762 538.086V535.249H331.386ZM330.762 539.562C330.762 538.464 330.008 537.726 329.008 537.726C328.007 537.726 327.253 538.464 327.253 539.562C327.253 540.661 328.007 541.399 329.008 541.399C330.008 541.399 330.762 540.661 330.762 539.562Z" fill="black"/>
<path d="M337.142 537.201L334.78 542.498C334.387 543.416 333.878 543.728 333.206 543.728C332.763 543.728 332.337 543.58 332.058 543.302L332.353 542.826C332.583 543.056 332.878 543.187 333.222 543.187C333.649 543.187 333.928 542.99 334.206 542.4L334.42 541.94L332.304 537.217H332.96L334.748 541.235L336.519 537.217H337.142V537.201Z" fill="black"/>
<path d="M343.964 538.988V541.924H343.358V541.186C343.062 541.678 342.505 541.973 341.734 541.973C340.668 541.973 340.012 541.416 340.012 540.596C340.012 539.874 340.471 539.251 341.832 539.251H343.341V538.972C343.341 538.168 342.882 537.726 341.996 537.726C341.39 537.726 340.816 537.939 340.422 538.283L340.127 537.808C340.602 537.398 341.308 537.168 342.046 537.168C343.276 537.168 343.964 537.775 343.964 538.988ZM343.325 540.497V539.726H341.849C340.93 539.726 340.635 540.087 340.635 540.579C340.635 541.12 341.078 541.465 341.832 541.465C342.554 541.465 343.079 541.12 343.325 540.497Z" fill="black"/>
<path d="M355.854 539.185V541.924H355.215V539.251C355.215 538.25 354.706 537.742 353.854 537.742C352.886 537.742 352.279 538.365 352.279 539.448V541.924H351.64V539.251C351.64 538.25 351.131 537.742 350.278 537.742C349.311 537.742 348.704 538.365 348.704 539.448V541.924H348.064V537.201H348.671V538.07C348.999 537.512 349.622 537.168 350.41 537.168C351.197 537.168 351.804 537.496 352.082 538.168C352.427 537.562 353.099 537.168 353.952 537.168C355.1 537.168 355.854 537.824 355.854 539.185Z" fill="black"/>
<path d="M361.726 539.759H357.773C357.839 540.743 358.593 541.399 359.626 541.399C360.2 541.399 360.709 541.186 361.07 540.776L361.43 541.186C361.004 541.694 360.348 541.957 359.61 541.957C358.134 541.957 357.134 540.956 357.134 539.546C357.134 538.152 358.118 537.152 359.446 537.152C360.774 537.152 361.742 538.136 361.742 539.546C361.742 539.612 361.726 539.677 361.726 539.759ZM357.773 539.284H361.119C361.037 538.365 360.364 537.709 359.446 537.709C358.528 537.709 357.855 538.349 357.773 539.284Z" fill="black"/>
<path d="M370.844 539.185V541.924H370.204V539.251C370.204 538.25 369.696 537.742 368.843 537.742C367.876 537.742 367.269 538.365 367.269 539.448V541.924H366.629V539.251C366.629 538.25 366.121 537.742 365.268 537.742C364.3 537.742 363.694 538.365 363.694 539.448V541.924H363.054V537.201H363.661V538.07C363.989 537.512 364.612 537.168 365.399 537.168C366.186 537.168 366.793 537.496 367.072 538.168C367.416 537.562 368.089 537.168 368.942 537.168C370.09 537.168 370.844 537.824 370.844 539.185Z" fill="black"/>
<path d="M377.371 539.562C377.371 540.989 376.371 541.973 375.026 541.973C374.239 541.973 373.583 541.629 373.206 540.989V541.924H372.599V535.266H373.238V538.103C373.632 537.496 374.288 537.168 375.042 537.168C376.371 537.168 377.371 538.136 377.371 539.562ZM376.732 539.562C376.732 538.464 375.961 537.726 374.977 537.726C373.976 537.726 373.222 538.464 373.222 539.562C373.222 540.661 373.976 541.399 374.977 541.399C375.977 541.399 376.732 540.661 376.732 539.562Z" fill="black"/>
<path d="M382.8 539.759H378.847C378.913 540.743 379.667 541.399 380.7 541.399C381.274 541.399 381.783 541.186 382.144 540.776L382.504 541.186C382.078 541.694 381.422 541.957 380.684 541.957C379.208 541.957 378.208 540.956 378.208 539.546C378.208 538.152 379.192 537.152 380.52 537.152C381.848 537.152 382.816 538.136 382.816 539.546C382.8 539.612 382.8 539.677 382.8 539.759ZM378.847 539.284H382.193C382.111 538.365 381.438 537.709 380.52 537.709C379.602 537.709 378.929 538.349 378.847 539.284Z" fill="black"/>
<path d="M386.49 537.168V537.791C386.44 537.791 386.375 537.775 386.342 537.775C385.358 537.775 384.751 538.398 384.751 539.513V541.924H384.112V537.201H384.718V538.119C385.014 537.496 385.62 537.168 386.49 537.168Z" fill="black"/>
<path d="M390.622 537.25C390.622 536.61 390.098 536.151 389.179 536.151C388.408 536.151 387.851 536.397 387.457 536.873L386.982 536.512C387.474 535.922 388.212 535.577 389.212 535.577C390.475 535.577 391.278 536.184 391.278 537.135C391.278 538.677 389.638 538.742 389.638 540.022H388.966C388.982 538.546 390.622 538.414 390.622 537.25ZM388.851 541.498C388.851 541.235 389.064 541.038 389.31 541.038C389.573 541.038 389.786 541.235 389.786 541.498C389.786 541.744 389.573 541.973 389.31 541.973C389.048 541.973 388.851 541.744 388.851 541.498Z" fill="black"/>
<path d="M395.067 535.626H396.526V540.727H399.675V541.908H395.067V535.626Z" fill="black"/>
<path d="M400.003 539.513C400.003 538.054 401.118 537.02 402.66 537.02C404.202 537.02 405.317 538.054 405.317 539.513C405.317 540.973 404.202 542.006 402.66 542.006C401.135 541.99 400.003 540.956 400.003 539.513ZM403.89 539.513C403.89 538.677 403.365 538.168 402.66 538.168C401.955 538.168 401.414 538.677 401.414 539.513C401.414 540.35 401.955 540.858 402.66 540.858C403.365 540.842 403.89 540.35 403.89 539.513Z" fill="black"/>
<path d="M411.237 537.086V541.104C411.237 542.908 410.27 543.728 408.531 543.728C407.613 543.728 406.727 543.498 406.153 543.056L406.711 542.055C407.121 542.383 407.793 542.596 408.416 542.596C409.4 542.596 409.843 542.154 409.843 541.268V541.055C409.482 541.465 408.941 541.662 408.318 541.662C406.973 541.662 405.907 540.743 405.907 539.333C405.907 537.922 406.99 537.004 408.318 537.004C408.99 537.004 409.548 537.234 409.925 537.693V537.07H411.237V537.086ZM409.86 539.349C409.86 538.644 409.335 538.168 408.597 538.168C407.859 538.168 407.318 538.644 407.318 539.349C407.318 540.054 407.859 540.53 408.597 540.53C409.335 540.546 409.86 540.071 409.86 539.349Z" fill="black"/>
<path d="M414.927 535.626C414.927 535.184 415.272 534.839 415.796 534.839C416.321 534.839 416.666 535.167 416.666 535.594C416.666 536.053 416.321 536.397 415.796 536.397C415.272 536.414 414.927 536.069 414.927 535.626ZM415.091 537.086H416.485V541.924H415.091V537.086Z" fill="black"/>
<path d="M422.734 539.152V541.924H421.34V539.366C421.34 538.578 420.979 538.218 420.356 538.218C419.683 538.218 419.191 538.628 419.191 539.513V541.908H417.797V537.07H419.142V537.644C419.519 537.234 420.093 537.004 420.749 537.004C421.881 537.02 422.734 537.676 422.734 539.152Z" fill="black"/>
</g>
<path d="M470.589 554.88H256.011V591.616H470.589V554.88Z" fill="#1877F2"/>
<path d="M335.584 578.955L332.878 575.085C332.632 575.101 332.353 575.118 332.091 575.118H328.975V578.939H327.171V566.36H332.074C335.338 566.36 337.322 568.016 337.322 570.739C337.322 572.674 336.322 574.084 334.551 574.708L337.536 578.922H335.584V578.955ZM335.535 570.755C335.535 568.951 334.338 567.934 332.025 567.934H328.975V573.592H332.025C334.338 573.609 335.535 572.559 335.535 570.755Z" fill="white"/>
<path d="M348.573 574.773H340.848C341.062 576.446 342.406 577.561 344.292 577.561C345.408 577.561 346.342 577.184 347.048 576.413L347.999 577.528C347.13 578.529 345.818 579.07 344.243 579.07C341.176 579.07 339.126 577.036 339.126 574.199C339.126 571.378 341.16 569.345 343.899 569.345C346.654 569.345 348.606 571.329 348.606 574.248C348.606 574.396 348.589 574.609 348.573 574.773ZM340.848 573.527H346.966C346.785 571.92 345.588 570.788 343.915 570.788C342.242 570.804 341.029 571.92 340.848 573.527Z" fill="white"/>
<path d="M360.118 569.427V577.66C360.118 581.022 358.413 582.547 355.182 582.547C353.444 582.547 351.672 582.055 350.639 581.12L351.459 579.792C352.345 580.546 353.722 581.038 355.116 581.038C357.363 581.038 358.38 580.005 358.38 577.84V577.086C357.56 578.07 356.314 578.562 354.952 578.562C352.197 578.562 350.114 576.692 350.114 573.937C350.114 571.182 352.197 569.345 354.952 569.345C356.379 569.345 357.658 569.87 358.478 570.903V569.427H360.118ZM358.429 573.937C358.429 572.084 357.068 570.854 355.166 570.854C353.247 570.854 351.886 572.1 351.886 573.937C351.886 575.774 353.247 577.053 355.166 577.053C357.052 577.053 358.429 575.774 358.429 573.937Z" fill="white"/>
<path d="M363.103 566.491C363.103 565.868 363.612 565.36 364.268 565.36C364.94 565.36 365.432 565.852 365.432 566.458C365.432 567.098 364.94 567.606 364.268 567.606C363.612 567.606 363.103 567.114 363.103 566.491ZM363.415 569.427H365.137V578.955H363.415V569.427Z" fill="white"/>
<path d="M367.22 577.955L367.941 576.594C368.745 577.168 370.04 577.578 371.287 577.578C372.894 577.578 373.55 577.086 373.55 576.282C373.55 574.15 367.531 576.003 367.531 572.198C367.531 570.493 369.056 569.345 371.5 569.345C372.746 569.345 374.14 569.673 374.96 570.214L374.222 571.575C373.353 571.018 372.402 570.821 371.467 570.821C369.958 570.821 369.22 571.378 369.22 572.133C369.22 574.38 375.256 572.543 375.256 576.249C375.256 577.971 373.681 579.07 371.139 579.07C369.581 579.07 368.007 578.578 367.22 577.955Z" fill="white"/>
<path d="M382.783 578.398C382.258 578.84 381.471 579.07 380.7 579.07C378.782 579.07 377.683 578.004 377.683 576.085V570.854H376.059V569.427H377.683V567.344H379.405V569.427H382.144V570.854H379.405V576.003C379.405 577.02 379.946 577.61 380.897 577.61C381.406 577.61 381.881 577.446 382.242 577.168L382.783 578.398Z" fill="white"/>
<path d="M393.115 574.773H385.391C385.604 576.446 386.949 577.561 388.835 577.561C389.95 577.561 390.885 577.184 391.59 576.413L392.541 577.528C391.672 578.529 390.36 579.07 388.786 579.07C385.719 579.07 383.669 577.036 383.669 574.199C383.669 571.378 385.702 569.345 388.441 569.345C391.196 569.345 393.148 571.329 393.148 574.248C393.164 574.396 393.148 574.609 393.115 574.773ZM385.391 573.527H391.508C391.328 571.92 390.13 570.788 388.458 570.788C386.801 570.804 385.571 571.92 385.391 573.527Z" fill="white"/>
<path d="M400.676 569.345V571.018C400.528 571.001 400.413 571.001 400.282 571.001C398.429 571.001 397.281 572.133 397.281 574.216V578.955H395.559V569.427H397.215V571.034C397.822 569.919 399.003 569.345 400.676 569.345Z" fill="white"/>
<path d="M470.589 382.532H256.011V419.268H470.589V382.532Z" fill="white"/>
<g opacity="0.4">
<path d="M267.754 394.914H268.869V404.476H274.756V405.443H267.754V394.914Z" fill="#263238"/>
<path d="M282.382 400.54V405.443H281.366V404.213C280.89 405.033 279.955 405.525 278.643 405.525C276.856 405.525 275.757 404.59 275.757 403.229C275.757 402.016 276.544 400.982 278.807 400.982H281.316V400.507C281.316 399.146 280.546 398.408 279.07 398.408C278.053 398.408 277.085 398.768 276.446 399.342L275.97 398.539C276.774 397.866 277.938 397.473 279.184 397.473C281.218 397.473 282.382 398.49 282.382 400.54ZM281.316 403.065V401.77H278.84C277.298 401.77 276.806 402.376 276.806 403.18C276.806 404.098 277.544 404.672 278.807 404.672C280.004 404.672 280.89 404.098 281.316 403.065Z" fill="#263238"/>
<path d="M284.186 404.541L284.662 403.705C285.302 404.197 286.368 404.59 287.466 404.59C288.975 404.59 289.582 404.082 289.582 403.295C289.582 401.228 284.449 402.852 284.449 399.736C284.449 398.44 285.564 397.473 287.581 397.473C288.598 397.473 289.713 397.752 290.386 398.211L289.926 399.064C289.238 398.588 288.401 398.391 287.598 398.391C286.171 398.391 285.531 398.949 285.531 399.703C285.531 401.835 290.664 400.228 290.664 403.262C290.664 404.623 289.467 405.525 287.401 405.525C286.105 405.509 284.842 405.099 284.186 404.541Z" fill="#263238"/>
<path d="M296.814 404.968C296.388 405.345 295.765 405.525 295.142 405.525C293.649 405.525 292.829 404.689 292.829 403.229V398.44H291.419V397.538H292.829V395.816H293.895V397.538H296.306V398.44H293.895V403.164C293.895 404.098 294.371 404.607 295.256 404.607C295.699 404.607 296.126 404.476 296.437 404.197L296.814 404.968Z" fill="#263238"/>
<path d="M311.706 394.914V405.443H310.787L304.014 396.899V405.443H302.899V394.914H303.817L310.607 403.459V394.914H311.706Z" fill="#263238"/>
<path d="M320.89 400.54V405.443H319.873V404.213C319.397 405.033 318.462 405.525 317.15 405.525C315.363 405.525 314.264 404.59 314.264 403.229C314.264 402.016 315.051 400.982 317.314 400.982H319.824V400.507C319.824 399.146 319.053 398.408 317.577 398.408C316.56 398.408 315.592 398.768 314.936 399.342L314.461 398.539C315.264 397.866 316.429 397.473 317.675 397.473C319.725 397.473 320.89 398.49 320.89 400.54ZM319.824 403.065V401.77H317.347C315.806 401.77 315.314 402.376 315.314 403.18C315.314 404.098 316.052 404.672 317.314 404.672C318.512 404.672 319.397 404.098 319.824 403.065Z" fill="#263238"/>
<path d="M336.847 400.851V405.443H335.781V400.966C335.781 399.293 334.944 398.44 333.518 398.44C331.894 398.44 330.877 399.49 330.877 401.294V405.443H329.811V400.966C329.811 399.293 328.975 398.44 327.532 398.44C325.924 398.44 324.891 399.49 324.891 401.294V405.443H323.825V397.538H324.842V398.982C325.4 398.03 326.416 397.473 327.745 397.473C329.057 397.473 330.074 398.03 330.549 399.146C331.123 398.129 332.255 397.473 333.682 397.473C335.584 397.473 336.847 398.588 336.847 400.851Z" fill="#263238"/>
<path d="M346.67 401.819H340.045C340.16 403.475 341.422 404.574 343.161 404.574C344.128 404.574 344.981 404.23 345.588 403.541L346.195 404.23C345.49 405.066 344.391 405.525 343.144 405.525C340.684 405.525 338.995 403.836 338.995 401.491C338.995 399.146 340.635 397.473 342.866 397.473C345.096 397.473 346.703 399.113 346.703 401.491C346.687 401.573 346.67 401.704 346.67 401.819ZM340.045 401.015H345.654C345.522 399.474 344.391 398.391 342.849 398.391C341.308 398.391 340.176 399.474 340.045 401.015Z" fill="#263238"/>
</g>
<path d="M470.589 332.348H256.011V369.084H470.589V332.348Z" fill="white"/>
<g opacity="0.4">
<path d="M268.869 345.682V349.814H274.314V350.782H268.869V355.243H267.754V344.714H274.97V345.682H268.869Z" fill="#263238"/>
<path d="M276.659 344.845C276.659 344.435 277.003 344.091 277.446 344.091C277.889 344.091 278.233 344.419 278.233 344.829C278.233 345.272 277.905 345.616 277.446 345.616C277.003 345.616 276.659 345.272 276.659 344.845ZM276.888 347.338H277.954V355.243H276.888V347.338Z" fill="#263238"/>
<path d="M284.924 347.289V348.322C284.842 348.322 284.744 348.306 284.662 348.306C283.006 348.306 282.005 349.355 282.005 351.225V355.259H280.939V347.354H281.956V348.896C282.464 347.846 283.465 347.289 284.924 347.289Z" fill="#263238"/>
<path d="M285.81 354.357L286.286 353.521C286.925 354.013 287.991 354.406 289.09 354.406C290.599 354.406 291.206 353.898 291.206 353.111C291.206 351.044 286.072 352.668 286.072 349.552C286.072 348.256 287.188 347.289 289.205 347.289C290.222 347.289 291.337 347.568 292.009 348.027L291.55 348.88C290.861 348.404 290.025 348.207 289.221 348.207C287.794 348.207 287.155 348.765 287.155 349.519C287.155 351.651 292.288 350.044 292.288 353.078C292.288 354.439 291.091 355.341 289.024 355.341C287.729 355.325 286.466 354.915 285.81 354.357Z" fill="#263238"/>
<path d="M298.438 354.767C298.012 355.144 297.388 355.325 296.765 355.325C295.273 355.325 294.453 354.488 294.453 353.029V348.24H293.042V347.338H294.453V345.616H295.519V347.338H297.93V348.24H295.519V352.963C295.519 353.898 295.994 354.406 296.88 354.406C297.323 354.406 297.749 354.275 298.061 353.996L298.438 354.767Z" fill="#263238"/>
<path d="M313.329 344.73V355.259H312.411L305.638 346.715V355.259H304.522V344.73H305.441L312.23 353.275V344.73H313.329Z" fill="#263238"/>
<path d="M322.513 350.356V355.259H321.48V354.029C321.004 354.849 320.07 355.341 318.758 355.341C316.97 355.341 315.871 354.406 315.871 353.045C315.871 351.832 316.658 350.798 318.922 350.798H321.431V350.323C321.431 348.962 320.66 348.24 319.184 348.24C318.167 348.24 317.2 348.601 316.56 349.175L316.084 348.371C316.888 347.699 318.052 347.305 319.299 347.305C321.349 347.289 322.513 348.306 322.513 350.356ZM321.447 352.881V351.586H318.971C317.429 351.586 316.937 352.192 316.937 352.996C316.937 353.914 317.675 354.488 318.938 354.488C320.135 354.488 321.021 353.914 321.447 352.881Z" fill="#263238"/>
<path d="M338.47 350.667V355.259H337.404V350.782C337.404 349.109 336.568 348.256 335.141 348.256C333.518 348.256 332.501 349.306 332.501 351.11V355.259H331.435V350.782C331.435 349.109 330.598 348.256 329.155 348.256C327.548 348.256 326.515 349.306 326.515 351.11V355.259H325.449V347.354H326.466V348.798C327.023 347.846 328.04 347.289 329.368 347.289C330.68 347.289 331.697 347.846 332.173 348.962C332.747 347.945 333.878 347.289 335.305 347.289C337.208 347.289 338.47 348.388 338.47 350.667Z" fill="#263238"/>
<path d="M348.294 351.635H341.668C341.783 353.291 343.046 354.39 344.784 354.39C345.752 354.39 346.605 354.046 347.212 353.357L347.818 354.046C347.113 354.882 346.014 355.341 344.768 355.341C342.308 355.341 340.619 353.652 340.619 351.307C340.619 348.962 342.259 347.289 344.489 347.289C346.72 347.289 348.327 348.929 348.327 351.307C348.31 351.389 348.294 351.504 348.294 351.635ZM341.668 350.831H347.277C347.146 349.29 346.014 348.207 344.473 348.207C342.931 348.207 341.816 349.29 341.668 350.831Z" fill="#263238"/>
</g>
<path d="M333.202 309V290.818H335.403V307.047H343.855V309H333.202ZM352.52 309.284C351.289 309.284 350.209 308.991 349.279 308.405C348.356 307.819 347.634 307 347.113 305.946C346.598 304.893 346.341 303.661 346.341 302.253C346.341 300.832 346.598 299.592 347.113 298.533C347.634 297.474 348.356 296.651 349.279 296.065C350.209 295.479 351.289 295.186 352.52 295.186C353.751 295.186 354.828 295.479 355.751 296.065C356.681 296.651 357.403 297.474 357.918 298.533C358.438 299.592 358.699 300.832 358.699 302.253C358.699 303.661 358.438 304.893 357.918 305.946C357.403 307 356.681 307.819 355.751 308.405C354.828 308.991 353.751 309.284 352.52 309.284ZM352.52 307.402C353.455 307.402 354.224 307.162 354.828 306.683C355.432 306.203 355.879 305.573 356.169 304.792C356.459 304.011 356.604 303.164 356.604 302.253C356.604 301.341 356.459 300.492 356.169 299.705C355.879 298.918 355.432 298.281 354.828 297.796C354.224 297.311 353.455 297.068 352.52 297.068C351.585 297.068 350.815 297.311 350.212 297.796C349.608 298.281 349.161 298.918 348.871 299.705C348.581 300.492 348.436 301.341 348.436 302.253C348.436 303.164 348.581 304.011 348.871 304.792C349.161 305.573 349.608 306.203 350.212 306.683C350.815 307.162 351.585 307.402 352.52 307.402ZM367.401 314.398C366.389 314.398 365.519 314.268 364.791 314.007C364.063 313.753 363.457 313.415 362.971 312.995C362.492 312.581 362.11 312.137 361.826 311.663L363.495 310.491C363.685 310.74 363.924 311.024 364.214 311.344C364.504 311.669 364.901 311.95 365.404 312.187C365.913 312.43 366.579 312.551 367.401 312.551C368.502 312.551 369.411 312.285 370.127 311.752C370.843 311.219 371.201 310.385 371.201 309.249V306.479H371.024C370.87 306.727 370.651 307.035 370.367 307.402C370.088 307.763 369.686 308.086 369.159 308.37C368.638 308.648 367.934 308.787 367.046 308.787C365.945 308.787 364.957 308.527 364.081 308.006C363.211 307.485 362.522 306.727 362.013 305.733C361.509 304.739 361.258 303.531 361.258 302.111C361.258 300.714 361.504 299.498 361.995 298.462C362.486 297.42 363.17 296.615 364.046 296.047C364.921 295.473 365.934 295.186 367.082 295.186C367.97 295.186 368.674 295.334 369.195 295.63C369.721 295.92 370.124 296.251 370.402 296.624C370.686 296.991 370.905 297.293 371.059 297.53H371.272V295.364H373.296V309.391C373.296 310.562 373.03 311.515 372.497 312.249C371.97 312.989 371.26 313.531 370.367 313.874C369.479 314.223 368.49 314.398 367.401 314.398ZM367.33 306.905C368.171 306.905 368.881 306.712 369.461 306.328C370.041 305.943 370.482 305.39 370.784 304.668C371.086 303.946 371.237 303.081 371.237 302.075C371.237 301.093 371.089 300.226 370.793 299.474C370.497 298.722 370.059 298.134 369.479 297.707C368.899 297.281 368.183 297.068 367.33 297.068C366.443 297.068 365.703 297.293 365.111 297.743C364.525 298.193 364.084 298.796 363.788 299.554C363.498 300.312 363.353 301.152 363.353 302.075C363.353 303.022 363.501 303.86 363.797 304.588C364.099 305.31 364.543 305.878 365.129 306.292C365.72 306.701 366.454 306.905 367.33 306.905ZM377.131 309V295.364H379.227V309H377.131ZM378.197 293.091C377.788 293.091 377.436 292.952 377.14 292.674C376.85 292.395 376.705 292.061 376.705 291.67C376.705 291.28 376.85 290.945 377.14 290.667C377.436 290.389 377.788 290.25 378.197 290.25C378.605 290.25 378.954 290.389 379.244 290.667C379.54 290.945 379.688 291.28 379.688 291.67C379.688 292.061 379.54 292.395 379.244 292.674C378.954 292.952 378.605 293.091 378.197 293.091ZM385.159 300.797V309H383.064V295.364H385.088V297.494H385.266C385.585 296.802 386.071 296.246 386.722 295.825C387.373 295.399 388.213 295.186 389.243 295.186C390.166 295.186 390.974 295.375 391.667 295.754C392.359 296.127 392.898 296.695 393.282 297.459C393.667 298.216 393.86 299.175 393.86 300.335V309H391.764V300.477C391.764 299.406 391.486 298.571 390.93 297.974C390.374 297.37 389.61 297.068 388.639 297.068C387.971 297.068 387.373 297.213 386.846 297.503C386.325 297.793 385.914 298.216 385.612 298.773C385.31 299.329 385.159 300.004 385.159 300.797Z" fill="#263238"/>
<path d="M205.762 579.349C205.762 579.349 194.905 570.296 185.59 579.349C176.274 588.402 174.487 644.473 174.487 644.473" stroke="#1877F2" stroke-width="1.54914" stroke-miterlimit="10"/>
<path d="M173.716 655.297C173.716 655.297 180.112 589.484 156.02 561.834" stroke="#1877F2" stroke-width="1.54914" stroke-miterlimit="10"/>
<path d="M176.012 648.36C176.012 648.36 171.076 573.445 189.148 556.832" stroke="#1877F2" stroke-width="1.54914" stroke-miterlimit="10"/>
<path d="M173.716 648.36C173.716 648.36 173.29 598.848 159.874 591.157C146.443 583.465 139.604 608.557 139.604 608.557" stroke="#1877F2" stroke-width="1.54914" stroke-miterlimit="10"/>
<path d="M179.03 648.36C179.03 648.36 176.832 610.361 187.246 596.766C197.644 583.186 208.599 602.588 208.599 602.588" stroke="#1877F2" stroke-width="1.54914" stroke-miterlimit="10"/>
<path d="M175.405 653.46C175.405 653.46 182.129 564.589 170.994 549.517" stroke="#1877F2" stroke-width="1.54914" stroke-miterlimit="10"/>
<path d="M148.378 598.373C148.378 598.373 155.069 600.849 153.085 606.671C151.1 612.493 129.928 622.087 129.928 622.087C129.928 622.087 121.056 613.953 129.206 600.734C137.341 587.532 148.198 594.207 148.378 598.373Z" fill="#1877F2"/>
<path opacity="0.2" d="M148.378 598.373C148.378 598.373 155.069 600.849 153.085 606.671C151.1 612.493 129.928 622.087 129.928 622.087C129.928 622.087 121.056 613.953 129.206 600.734C137.341 587.532 148.198 594.207 148.378 598.373Z" fill="black"/>
<path d="M177.488 587.286C177.488 587.286 170.354 586.991 169.96 593.141C169.55 599.291 185.409 616.282 185.409 616.282C185.409 616.282 196.725 612.198 194.298 596.864C191.854 581.514 179.259 583.498 177.488 587.286Z" fill="#1877F2"/>
<path opacity="0.2" d="M177.488 587.286C177.488 587.286 170.354 586.991 169.96 593.141C169.55 599.291 185.409 616.282 185.409 616.282C185.409 616.282 196.725 612.198 194.298 596.864C191.854 581.514 179.259 583.498 177.488 587.286Z" fill="black"/>
<path d="M183.523 557.865C183.523 557.865 178.767 557.356 179.144 554.454C179.522 551.551 197.627 544.105 208.304 556.159C208.304 556.159 201.465 567.902 191.576 568.049C181.703 568.213 183.523 557.865 183.523 557.865Z" fill="#1877F2"/>
<path opacity="0.2" d="M183.523 557.865C183.523 557.865 178.767 557.356 179.144 554.454C179.522 551.551 197.627 544.105 208.304 556.159C208.304 556.159 201.465 567.902 191.576 568.049C181.703 568.213 183.523 557.865 183.523 557.865Z" fill="black"/>
<path d="M174.667 550.829C174.667 550.829 178.964 552.912 180.178 550.255C181.391 547.598 169.96 531.707 154.528 536.282C154.528 536.282 154.118 549.862 162.433 555.224C170.731 560.571 174.667 550.829 174.667 550.829Z" fill="#1877F2"/>
<path opacity="0.2" d="M174.667 550.829C174.667 550.829 178.964 552.912 180.178 550.255C181.391 547.598 169.96 531.707 154.528 536.282C154.528 536.282 154.118 549.862 162.433 555.224C170.731 560.571 174.667 550.829 174.667 550.829Z" fill="black"/>
<path d="M197.168 596.028C197.168 596.028 193.888 593.371 197.43 592.092C200.973 590.796 218.34 591.173 218.521 608.377C218.521 608.377 198.283 611.739 195.774 605.179C193.281 598.619 197.168 596.028 197.168 596.028Z" fill="#1877F2"/>
<path opacity="0.2" d="M197.168 596.028C197.168 596.028 193.888 593.371 197.43 592.092C200.973 590.796 218.34 591.173 218.521 608.377C218.521 608.377 198.283 611.739 195.774 605.179C193.281 598.619 197.168 596.028 197.168 596.028Z" fill="black"/>
<path d="M155.906 557.438C155.906 557.438 159.186 554.782 155.643 553.502C152.101 552.207 134.733 552.584 134.553 569.788C134.553 569.788 154.79 573.15 157.3 566.59C159.792 560.03 155.906 557.438 155.906 557.438Z" fill="#1877F2"/>
<path opacity="0.2" d="M155.906 557.438C155.906 557.438 159.186 554.782 155.643 553.502C152.101 552.207 134.733 552.584 134.553 569.788C134.553 569.788 154.79 573.15 157.3 566.59C159.792 560.03 155.906 557.438 155.906 557.438Z" fill="black"/>
<path d="M166.598 571.296C166.598 571.296 166.894 568.082 164.286 569.345C161.678 570.608 152.626 580.382 162.023 589.648C162.023 589.648 174.667 580.284 172.388 575.413C170.108 570.542 166.598 571.296 166.598 571.296Z" fill="#1877F2"/>
<path opacity="0.2" d="M166.598 571.296C166.598 571.296 166.894 568.082 164.286 569.345C161.678 570.608 152.626 580.382 162.023 589.648C162.023 589.648 174.667 580.284 172.388 575.413C170.108 570.542 166.598 571.296 166.598 571.296Z" fill="black"/>
<path d="M200.104 575.888C200.104 575.888 198.136 573.314 201.022 573.002C203.892 572.69 216.766 576.118 213.765 588.976C213.765 588.976 198.086 587.795 197.414 582.465C196.742 577.102 200.104 575.888 200.104 575.888Z" fill="#1877F2"/>
<path opacity="0.2" d="M200.104 575.888C200.104 575.888 198.136 573.314 201.022 573.002C203.892 572.69 216.766 576.118 213.765 588.976C213.765 588.976 198.086 587.795 197.414 582.465C196.742 577.102 200.104 575.888 200.104 575.888Z" fill="black"/>
<path d="M149.542 696.068H200.235L206.975 646.769H142.802L149.542 696.068Z" fill="#263238"/>
<path opacity="0.2" d="M149.542 696.068H200.235L206.975 646.769H142.802L149.542 696.068Z" fill="white"/>
<path d="M213.338 642.768V647.458C213.338 650.59 210.796 653.132 207.664 653.132H141.49C138.358 653.132 135.816 650.59 135.816 647.458V642.768H213.338Z" fill="#263238"/>
<path d="M635.737 175.499H588.62C580.6 175.499 574.106 181.993 574.106 190.013V231.013C574.106 239.032 580.6 245.527 588.62 245.527H602.379L599.05 258.466L612.137 245.527H635.737C643.756 245.527 650.251 239.032 650.251 231.013V190.013C650.251 181.993 643.756 175.499 635.737 175.499Z" fill="#1877F2"/>
<path opacity="0.7" d="M635.737 175.499H588.62C580.6 175.499 574.106 181.993 574.106 190.013V231.013C574.106 239.032 580.6 245.527 588.62 245.527H602.379L599.05 258.466L612.137 245.527H635.737C643.756 245.527 650.251 239.032 650.251 231.013V190.013C650.251 181.993 643.756 175.499 635.737 175.499Z" fill="white"/>
<path d="M628.713 226.87C637.846 217.737 637.846 202.93 628.713 193.797C619.58 184.664 604.773 184.664 595.64 193.797C586.507 202.93 586.507 217.737 595.64 226.87C604.773 236.003 619.58 236.003 628.713 226.87Z" fill="#1877F2"/>
<path d="M609.726 220.779C609.103 220.779 608.496 220.5 608.086 220.025L598.919 209.217C598.148 208.315 598.263 206.954 599.165 206.183C600.067 205.412 601.428 205.527 602.199 206.429L609.743 215.302L622.19 200.64C622.961 199.738 624.322 199.623 625.224 200.394C626.126 201.165 626.241 202.526 625.47 203.428L611.383 220.025C610.956 220.5 610.366 220.779 609.726 220.779Z" fill="white"/>
<path d="M627.57 428.469C627.57 428.469 599.017 424.877 555.754 436.734C555.754 436.734 548.784 359.425 549.62 348.814C550.457 338.203 616.401 341.303 616.401 341.303C616.401 341.303 618.107 372.25 622.354 390.913C626.602 409.576 629.751 424.894 627.57 428.469Z" fill="#1877F2"/>
<path opacity="0.2" d="M627.57 428.469C627.57 428.469 599.017 424.877 555.754 436.734C555.754 436.734 548.784 359.425 549.62 348.814C550.457 338.203 616.401 341.303 616.401 341.303C616.401 341.303 618.107 372.25 622.354 390.913C626.602 409.576 629.751 424.894 627.57 428.469Z" fill="black"/>
<path d="M534.893 684.424L546.537 687.72L549.309 669.598L550.801 659.906L539.157 656.609L537.173 669.598L534.893 684.424Z" fill="#E4897B"/>
<path d="M601.838 685.375L613.843 686.966L613.958 669.598L614.04 658.807L602.018 657.232L601.936 669.598L601.838 685.375Z" fill="#E4897B"/>
<path opacity="0.2" d="M602.018 657.232L601.936 669.598H613.958L614.04 658.807L602.018 657.232Z" fill="black"/>
<path opacity="0.2" d="M537.173 669.598H549.309L550.801 659.906L539.157 656.609L537.173 669.598Z" fill="black"/>
<path d="M483.2 355.095L471.638 351.684L473.754 364.886C473.754 364.886 484.25 367.313 485.267 361.852L483.2 355.095Z" fill="#E4897B"/>
<path d="M460.093 354.734L465.767 365.476L473.754 364.87L471.638 351.668L460.093 354.734Z" fill="#E4897B"/>
<path d="M499.158 358.457L480.166 354.21L478.444 363.443L495.681 367.641L499.158 358.457Z" fill="#E4897B"/>
<path d="M556.607 350.142C556.607 350.142 556.197 350.634 555.492 351.471C553.097 354.275 547.242 361.048 541.24 366.887C536.32 371.643 531.334 375.792 528.087 376.628C518.788 379.023 484.988 369.068 484.988 369.068L488.481 355.358C488.481 355.358 519.969 359.54 522.413 359.54C524.266 359.54 543.421 331.791 548.062 329.511L556.607 350.142Z" fill="#1877F2"/>
<path opacity="0.2" d="M555.492 351.471C553.097 354.275 547.242 361.048 541.24 366.887C542.454 357.276 545.98 348.453 550.621 342.877C551.113 342.287 551.605 341.795 552.097 341.434L555.492 351.471Z" fill="black"/>
<path d="M535.041 682.603L548.259 682.242C548.751 682.226 549.194 682.554 549.325 683.03L552.097 693.673C552.392 694.772 551.572 695.854 550.424 695.871C545.652 695.92 538.747 695.822 532.745 695.986C525.742 696.182 521.281 695.838 513.048 696.051C508.079 696.182 506.521 691.213 508.588 690.705C517.985 688.392 524.135 688.852 532.138 683.604C533.024 683.046 533.991 682.636 535.041 682.603Z" fill="#263238"/>
<path d="M533.893 684.309C533.876 684.309 533.876 684.325 533.86 684.325C531.925 684.768 528.464 685.326 527.103 684.194C526.693 683.85 526.496 683.39 526.513 682.816C526.529 682.472 526.677 682.21 526.956 682.046C528.399 681.176 533.352 683.522 533.909 683.784C534.024 683.833 534.09 683.948 534.073 684.079C534.073 684.178 534.008 684.26 533.893 684.309ZM527.366 682.488C527.333 682.505 527.3 682.521 527.267 682.538C527.152 682.603 527.103 682.702 527.103 682.849C527.087 683.243 527.218 683.538 527.48 683.751C528.251 684.391 530.252 684.456 532.909 683.932C530.941 683.079 528.268 682.144 527.366 682.488Z" fill="#1877F2"/>
<path d="M533.893 684.309C533.827 684.342 533.745 684.342 533.68 684.309C532.187 683.702 529.202 681.16 529.383 679.799C529.432 679.471 529.645 679.077 530.416 678.979C531.006 678.897 531.548 679.061 532.023 679.422C533.614 680.635 534.057 683.882 534.073 684.014C534.09 684.112 534.04 684.21 533.958 684.276C533.958 684.276 533.926 684.292 533.893 684.309ZM530.219 679.602C529.99 679.684 529.973 679.815 529.957 679.864C529.858 680.684 531.892 682.685 533.417 683.538C533.22 682.587 532.728 680.668 531.679 679.864C531.318 679.586 530.924 679.471 530.498 679.536C530.383 679.536 530.285 679.569 530.219 679.602Z" fill="#1877F2"/>
<path d="M602.314 682.603L615.532 682.242C616.024 682.226 616.467 682.554 616.598 683.03L619.37 693.673C619.665 694.772 618.845 695.854 617.697 695.871C612.924 695.92 606.02 695.822 600.018 695.986C593.015 696.182 588.554 695.838 580.321 696.051C575.352 696.182 573.794 691.213 575.86 690.705C585.258 688.392 591.408 688.852 599.411 683.604C600.296 683.046 601.264 682.636 602.314 682.603Z" fill="#263238"/>
<path d="M601.182 684.309C601.166 684.309 601.166 684.325 601.149 684.325C599.214 684.768 595.754 685.326 594.392 684.194C593.982 683.85 593.786 683.39 593.802 682.816C593.818 682.472 593.966 682.21 594.245 682.046C595.688 681.176 600.641 683.522 601.198 683.784C601.313 683.833 601.379 683.948 601.362 684.079C601.346 684.178 601.28 684.26 601.182 684.309ZM594.638 682.488C594.606 682.505 594.573 682.521 594.54 682.538C594.425 682.603 594.376 682.702 594.376 682.849C594.36 683.243 594.491 683.538 594.753 683.751C595.524 684.391 597.525 684.456 600.182 683.932C598.214 683.079 595.54 682.144 594.638 682.488Z" fill="#1877F2"/>
<path d="M601.182 684.309C601.116 684.342 601.034 684.342 600.969 684.309C599.476 683.702 596.492 681.16 596.672 679.799C596.705 679.471 596.934 679.077 597.705 678.979C598.296 678.897 598.837 679.061 599.312 679.422C600.903 680.635 601.346 683.882 601.362 684.014C601.379 684.112 601.33 684.21 601.248 684.276C601.231 684.276 601.215 684.292 601.182 684.309ZM597.492 679.602C597.262 679.684 597.246 679.815 597.23 679.864C597.131 680.684 599.165 682.685 600.69 683.538C600.493 682.587 600.001 680.668 598.952 679.864C598.591 679.586 598.197 679.471 597.771 679.536C597.672 679.536 597.574 679.569 597.492 679.602Z" fill="#1877F2"/>
<path d="M626.602 421.417C632.965 449.002 622.043 665.892 622.043 665.892H600.952L591.932 485.131L558.706 665.892L536.156 664.252C550.9 524.228 563.921 440.638 563.921 440.638L563.888 430.076L626.602 421.417Z" fill="#263238"/>
<path opacity="0.4" d="M536.172 664.252L558.722 665.892L584.864 523.605L591.932 485.147L600.952 665.892H622.043C622.043 665.892 632.965 449.002 626.602 421.433L563.905 430.076L563.938 440.638C563.938 440.638 550.916 524.228 536.172 664.252Z" fill="white"/>
<path d="M615.237 319.31C614.482 332.824 615.056 346.288 616.237 358.834C617.106 368.018 618.336 376.694 619.632 384.517C622.666 402.868 626.11 416.628 626.602 421.433C617.418 422.696 582.781 427.485 563.905 430.076C541.043 366.149 549.653 328.954 549.653 328.954C549.653 328.954 556.197 326.166 564.036 324.034C565.069 323.755 566.119 323.492 567.201 323.246C574.155 321.639 585.799 320.294 593.851 319.573C595.54 319.425 597.279 319.31 598.952 319.228C607.512 318.818 615.237 319.31 615.237 319.31Z" fill="#263238"/>
<path d="M581.682 290.545C582.142 299.319 583.076 315.784 590.374 319.966C590.374 319.966 585.832 328.609 576.008 329.495C568.579 330.167 569.071 322.836 569.071 322.836C573.368 319.622 572.334 314.194 569.071 308.076L581.682 290.545Z" fill="#E4897B"/>
<path opacity="0.2" d="M576.533 297.695L569.054 308.06C569.842 309.503 570.53 310.996 571.022 312.488C574.483 311.11 578.419 305.994 577.861 302.172C577.582 300.254 577.058 298.482 576.533 297.695Z" fill="black"/>
<path d="M549.702 272.882C548.276 277.441 549.063 286.789 555.41 283.739C561.756 280.688 552.162 265.059 549.702 272.882Z" fill="#263238"/>
<path d="M582.502 279.032C583.208 290.725 584.208 297.548 579.042 304.173C571.285 314.128 556.262 310.422 552.064 299.138C548.292 288.987 547.784 271.554 558.624 265.666C569.3 259.844 581.797 267.339 582.502 279.032Z" fill="#E4897B"/>
<path d="M574.302 272.669V259.598C574.302 259.598 588.21 258.565 587.586 265.682C595.294 269.504 591.654 281.492 581.305 287.363C575.631 282.82 576.287 271.898 576.287 271.898C575.664 272.177 574.991 272.423 574.302 272.669Z" fill="#263238"/>
<path d="M588.16 288.167C587.603 291.266 585.651 293.808 583.486 295.235C580.223 297.384 577.386 294.743 577.271 291.053C577.172 287.724 578.73 282.591 582.486 281.935C586.192 281.295 588.8 284.624 588.16 288.167Z" fill="#E4897B"/>
<path d="M565.233 284.264C565.348 285.215 564.938 286.035 564.315 286.1C563.692 286.166 563.101 285.461 562.986 284.51C562.872 283.558 563.282 282.738 563.905 282.673C564.512 282.607 565.118 283.312 565.233 284.264Z" fill="#263238"/>
<path d="M554.508 285.461C554.622 286.412 554.212 287.232 553.589 287.298C552.966 287.363 552.376 286.658 552.261 285.707C552.146 284.756 552.556 283.936 553.179 283.87C553.786 283.804 554.393 284.51 554.508 285.461Z" fill="#263238"/>
<path d="M557.968 285.543C557.968 285.543 556.394 291.037 554.311 293.858C556.148 295.153 558.919 294.12 558.919 294.12L557.968 285.543Z" fill="#DE5753"/>
<path d="M564.446 297.17C564.069 297.269 563.659 297.334 563.216 297.384C563.068 297.4 562.921 297.285 562.904 297.138C562.888 296.99 563.003 296.842 563.15 296.826C567.316 296.35 568.907 293.251 568.923 293.218C568.989 293.087 569.153 293.021 569.3 293.087C569.448 293.152 569.497 293.316 569.432 293.464C569.35 293.595 567.988 296.285 564.446 297.17Z" fill="#263238"/>
<path d="M568.12 280.442C567.923 280.492 567.726 280.442 567.578 280.278C565.84 278.474 563.806 278.819 563.79 278.819C563.478 278.868 563.183 278.671 563.134 278.376C563.068 278.081 563.282 277.786 563.577 277.72C563.692 277.704 566.234 277.261 568.398 279.508C568.612 279.737 568.612 280.082 568.382 280.295C568.284 280.36 568.202 280.41 568.12 280.442Z" fill="#263238"/>
<path d="M549.44 282.296C549.342 282.328 549.227 282.312 549.112 282.279C548.817 282.181 548.669 281.853 548.768 281.558C549.784 278.638 552.277 278.032 552.392 277.982C552.687 277.917 552.999 278.097 553.081 278.392C553.163 278.688 552.982 278.999 552.671 279.065C552.572 279.081 550.637 279.59 549.834 281.935C549.768 282.115 549.62 282.246 549.44 282.296Z" fill="#263238"/>
<path d="M580.469 277.523C580.469 277.523 572.318 274.538 568.53 269.782C568.53 269.782 561.084 271.734 559.559 274.752C559.559 274.752 556.984 272.587 558.903 269.782C558.903 269.782 553.327 270.963 552.228 274.752C552.228 274.752 549.44 273.8 549.62 269.782C549.62 269.782 547.144 270.717 546.357 274.752C546.357 274.752 540.19 261.943 560.51 258.27C560.51 258.27 558.903 257.597 555.754 257.466C555.754 257.466 569.924 251.742 581.174 256.99C592.424 262.222 590.374 272.275 580.469 277.523Z" fill="#263238"/>
<path d="M631.44 432.454L611.776 435.078C611.776 435.078 603.658 378.35 600.083 360.032V320.901L610.366 318.195L618.287 320.901C620.19 327.248 621.862 335.579 623.322 344.845C624.29 350.979 625.159 357.539 625.93 364.181C626.996 373.234 627.881 382.45 628.636 391.077C629.816 405 630.604 417.333 631.03 424.844C631.309 429.633 631.44 432.454 631.44 432.454Z" fill="#1877F2"/>
<path d="M600.083 360.032C600.083 360.032 601.723 332.43 610.366 318.195C610.366 318.195 610.153 314.128 608.414 313.472C606.692 312.816 600.083 316.719 600.083 316.719C600.083 316.719 595.967 313.915 595.048 315.21C594.13 316.506 591.965 325.28 600.083 360.032Z" fill="#1877F2"/>
<path opacity="0.7" d="M600.083 360.032C600.083 360.032 601.723 332.43 610.366 318.195C610.366 318.195 610.153 314.128 608.414 313.472C606.692 312.816 600.083 316.719 600.083 316.719C600.083 316.719 595.967 313.915 595.048 315.21C594.13 316.506 591.965 325.28 600.083 360.032Z" fill="white"/>
<path d="M555.344 440.047L557.591 441.671C557.591 441.671 554.344 423.385 555.656 377.137C555.721 374.906 555.803 372.758 555.885 370.708C557.558 331.578 563.626 324.46 564.02 324.034L558.345 325.969L548.062 329.511C545.028 362.902 555.344 440.047 555.344 440.047Z" fill="#1877F2"/>
<path d="M556.23 363.968C556.23 363.968 550.555 337.154 552.244 327.904C553.934 318.654 559.985 322.771 559.985 322.771C559.985 322.771 565.545 318.277 567.201 323.23C567.201 323.23 559.559 328.609 556.23 363.968Z" fill="#1877F2"/>
<path opacity="0.7" d="M556.23 363.968C556.23 363.968 550.555 337.154 552.244 327.904C553.934 318.654 559.985 322.771 559.985 322.771C559.985 322.771 565.545 318.277 567.201 323.23C567.201 323.23 559.559 328.609 556.23 363.968Z" fill="white"/>
<path opacity="0.2" d="M625.93 364.181C617.533 359.474 616.418 347.19 616.418 347.19C616.926 346.994 620.042 345.928 623.322 344.845C624.29 350.979 625.159 357.539 625.93 364.181Z" fill="black"/>
<path opacity="0.2" d="M584.864 523.605L591.932 485.147L590.571 464.795C590.571 464.795 580.879 500.088 584.864 523.605Z" fill="black"/>
<path opacity="0.2" d="M631.03 424.844C625.749 424.484 621.174 424.139 621.174 424.139L620.173 402.672C620.173 402.672 621.879 401.245 625.7 401.655C625.7 401.655 627.422 397.456 628.636 391.077C629.816 405 630.604 417.333 631.03 424.844Z" fill="black"/>
<path d="M632.834 391.06L622.551 407.575L630.686 412.249L640.345 397.374L632.834 391.06Z" fill="#E4897B"/>
<path d="M617.877 320.704C624.798 321.459 654.22 361.836 655.515 374.004C656.811 386.173 638.23 407.182 638.23 407.182L625.815 399.884C625.815 399.884 638.426 380.515 639.066 375.349C639.706 370.183 616.024 348.994 616.024 348.994C616.024 348.994 613.433 342.762 613.105 333.808C612.793 324.837 617.877 320.704 617.877 320.704Z" fill="#1877F2"/>
<path d="M620.173 402.672C620.173 402.672 630.751 404.935 635.015 411.593C635.015 411.593 630.604 425.451 627.438 426.96C624.273 428.469 616.418 428.469 616.418 428.469C616.418 428.469 615.909 413.053 620.173 402.672Z" fill="#1877F2"/>
</g>
<defs>
<clipPath id="clip0_741_110">
<rect width="709" height="611" fill="white" transform="translate(52 103)"/>
</clipPath>
</defs>
</svg>
