<svg width="709" height="611" viewBox="0 0 709 611" fill="none" xmlns="http://www.w3.org/2000/svg">
<g clip-path="url(#clip0_741_1465)">
<path d="M750 536.783H-70V537.193H750V536.783Z" fill="#EBEBEB"/>
<path d="M667.836 563.17H613.519V563.58H667.836V563.17Z" fill="#EBEBEB"/>
<path d="M473.201 567.631H458.949V568.041H473.201V567.631Z" fill="#EBEBEB"/>
<path d="M611.879 547.951H580.408V548.361H611.879V547.951Z" fill="#EBEBEB"/>
<path d="M86.866 550.706H16.0344V551.116H86.866V550.706Z" fill="#EBEBEB"/>
<path d="M111.86 550.706H101.478V551.116H111.86V550.706Z" fill="#EBEBEB"/>
<path d="M299.246 557.627H145.611V558.037H299.246V557.627Z" fill="#EBEBEB"/>
<path d="M318.696 463.639H2.02877C-3.13723 463.639 -7.33563 459.44 -7.33563 454.274V9.12917C-7.33563 3.96317 -3.13723 -0.235229 2.02877 -0.235229H318.713C323.879 -0.235229 328.077 3.96317 328.077 9.12917V454.274C328.061 459.44 323.862 463.639 318.696 463.639ZM2.02877 0.174771C-2.90763 0.174771 -6.92563 4.19277 -6.92563 9.12917V454.274C-6.92563 459.211 -2.90763 463.229 2.02877 463.229H318.713C323.649 463.229 327.667 459.211 327.667 454.274V9.12917C327.667 4.19277 323.649 0.174771 318.713 0.174771H2.02877Z" fill="#EBEBEB"/>
<path d="M673.428 463.639H356.744C351.578 463.639 347.38 459.44 347.38 454.274V9.12917C347.38 3.96317 351.578 -0.235229 356.744 -0.235229H673.428C678.594 -0.235229 682.793 3.96317 682.793 9.12917V454.274C682.793 459.44 678.594 463.639 673.428 463.639ZM356.744 0.174771C351.808 0.174771 347.79 4.19277 347.79 9.12917V454.274C347.79 459.211 351.808 463.229 356.744 463.229H673.428C678.365 463.229 682.383 459.211 682.383 454.274V9.12917C682.383 4.19277 678.365 0.174771 673.428 0.174771H356.744Z" fill="#EBEBEB"/>
<path d="M327.438 194.794H94.5904V536.192H327.438V194.794Z" fill="#F0F0F0"/>
<path d="M319.205 205.552H102.807V268.61H319.205V205.552Z" fill="#E0E0E0"/>
<path d="M115.107 215.753H102.807V268.594H115.107V215.753Z" fill="#EBEBEB"/>
<path d="M174.557 215.753H162.257V268.594H174.557V215.753Z" fill="#EBEBEB"/>
<path d="M242.025 214.457L229.903 216.546L238.875 268.621L250.997 266.532L242.025 214.457Z" fill="#EBEBEB"/>
<path d="M130.342 222.723H118.042V268.61H130.342V222.723Z" fill="#EBEBEB"/>
<path d="M158.6 222.723H146.3V268.61H158.6V222.723Z" fill="#EBEBEB"/>
<path d="M229.923 222.723H217.623V268.61H229.923V222.723Z" fill="#EBEBEB"/>
<path d="M190.705 221.151L178.697 223.819L188.65 268.614L200.658 265.947L190.705 221.151Z" fill="#EBEBEB"/>
<path d="M140.97 213.129H134.82V268.594H140.97V213.129Z" fill="#EBEBEB"/>
<path d="M214.081 213.129H207.931V268.594H214.081V213.129Z" fill="#EBEBEB"/>
<path d="M102.815 341.639H319.213V278.581H102.815V341.639Z" fill="#E0E0E0"/>
<path d="M306.9 341.63H319.2V288.789H306.9V341.63Z" fill="#EBEBEB"/>
<path d="M247.472 341.63H259.772V288.789H247.472V341.63Z" fill="#EBEBEB"/>
<path d="M170.989 339.553L183.111 341.642L192.084 289.567L179.962 287.479L170.989 339.553Z" fill="#EBEBEB"/>
<path d="M291.673 341.64H303.973V295.753H291.673V341.64Z" fill="#EBEBEB"/>
<path d="M263.421 341.64H275.721V295.753H263.421V341.64Z" fill="#EBEBEB"/>
<path d="M192.11 341.64H204.41V295.753H192.11V341.64Z" fill="#EBEBEB"/>
<path d="M221.377 338.97L233.384 341.638L243.337 296.843L231.33 294.175L221.377 338.97Z" fill="#EBEBEB"/>
<path d="M281.045 341.63H287.195V286.165H281.045V341.63Z" fill="#EBEBEB"/>
<path d="M207.939 341.63H214.089V286.165H207.939V341.63Z" fill="#EBEBEB"/>
<path d="M115.107 288.798H102.807V341.639H115.107V288.798Z" fill="#EBEBEB"/>
<path d="M130.342 295.752H118.042V341.639H130.342V295.752Z" fill="#EBEBEB"/>
<path d="M158.6 295.752H146.3V341.639H158.6V295.752Z" fill="#EBEBEB"/>
<path d="M140.97 286.174H134.82V341.639H140.97V286.174Z" fill="#EBEBEB"/>
<path d="M319.205 351.627H102.807V414.685H319.205V351.627Z" fill="#E0E0E0"/>
<path d="M239.32 361.828H227.02V414.668H239.32V361.828Z" fill="#EBEBEB"/>
<path d="M306.784 360.539L294.662 362.628L303.634 414.703L315.756 412.614L306.784 360.539Z" fill="#EBEBEB"/>
<path d="M195.106 368.798H182.806V414.685H195.106V368.798Z" fill="#EBEBEB"/>
<path d="M223.363 368.798H211.063V414.685H223.363V368.798Z" fill="#EBEBEB"/>
<path d="M294.687 368.798H282.387V414.685H294.687V368.798Z" fill="#EBEBEB"/>
<path d="M255.47 367.224L243.463 369.892L253.416 414.687L265.423 412.019L255.47 367.224Z" fill="#EBEBEB"/>
<path d="M205.733 359.204H199.583V414.668H205.733V359.204Z" fill="#EBEBEB"/>
<path d="M278.844 359.204H272.694V414.668H278.844V359.204Z" fill="#EBEBEB"/>
<path d="M165.362 360.533L153.24 362.621L162.212 414.696L174.334 412.607L165.362 360.533Z" fill="#EBEBEB"/>
<path d="M153.253 368.798H140.953V414.685H153.253V368.798Z" fill="#EBEBEB"/>
<path d="M114.036 367.226L102.029 369.894L111.982 414.689L123.989 412.021L114.036 367.226Z" fill="#EBEBEB"/>
<path d="M137.427 359.204H131.277V414.668H137.427V359.204Z" fill="#EBEBEB"/>
<path d="M54.4024 537.101H94.5824L94.5824 194.816H54.4024L54.4024 537.101Z" fill="#E0E0E0"/>
<path d="M463.722 528.156H429.593L447.535 382.016C448.289 375.833 453.931 370.815 460.114 370.815H471.84H609.042L587.214 528.156H463.722Z" fill="#F5F5F5"/>
<path d="M571.962 528.156H606.09L624.032 382.016C624.786 375.833 620.391 370.815 614.208 370.815H602.482C596.299 370.815 590.658 375.833 589.903 382.016L571.962 528.156Z" fill="#F0F0F0"/>
<path d="M559.399 527.992L565.582 457.308C565.861 454.16 568.304 451.618 571.437 451.208L573.979 450.88C578.194 450.338 581.474 446.944 581.834 442.696L582.966 429.806C583.425 424.525 579.26 419.982 573.962 419.982H631.002C636.299 419.982 640.464 424.525 640.005 429.806L638.874 442.696C638.496 446.927 635.233 450.338 631.018 450.88L628.476 451.208C625.327 451.601 622.9 454.143 622.621 457.308L616.438 527.992C615.996 533.142 611.666 537.094 606.5 537.094H549.461C554.627 537.094 558.94 533.142 559.399 527.992Z" fill="#E6E6E6"/>
<path d="M402.418 439.613C401.451 428.51 392.152 419.998 381.016 419.998H408.618H430.676C441.811 419.998 451.11 428.51 452.078 439.613L456.981 495.635H407.322L402.418 439.613Z" fill="#E6E6E6"/>
<path d="M358.958 419.998H381.016C392.152 419.998 401.451 428.51 402.418 439.613L407.322 495.635H525.599L530.502 439.613C531.47 428.51 540.769 419.998 551.904 419.998H573.962C579.26 419.998 583.425 424.541 582.966 429.822L581.834 442.712C581.457 446.944 578.194 450.355 573.979 450.896L571.437 451.224C568.288 451.618 565.861 454.16 565.582 457.325L559.399 528.009C558.956 533.158 554.627 537.111 549.461 537.111H383.46C378.294 537.111 373.964 533.158 373.522 528.009L367.339 457.325C367.06 454.176 364.616 451.634 361.484 451.224L358.942 450.896C354.727 450.355 351.447 446.96 351.086 442.712L349.955 429.822C349.496 424.541 353.645 419.998 358.958 419.998Z" fill="#F0F0F0"/>
<path d="M97.5424 177.738C97.5424 177.738 95.722 165.766 104.463 158.074C113.204 150.399 112.434 145.823 109.941 145.233C107.448 144.642 105.136 152.318 101.298 154.433C101.298 154.433 101.183 143.494 105.07 139.46C108.973 135.426 111.023 125.044 107.3 124.864C103.594 124.684 103.2 131.03 102.43 135.54C101.659 140.05 97.526 146.381 97.526 146.381C97.526 146.381 96.7224 136.59 94.1968 132.556C91.6712 128.521 98.3952 119.304 95.804 115.27C93.2128 111.236 88.6044 118.911 88.9816 127.554C89.3588 136.196 95.1316 145.413 93.7868 154.433C93.7868 154.433 91.2448 148.103 88.9652 147.529C86.6856 146.955 84.3732 142.756 82.848 141.215C81.3064 139.657 79.3876 145.036 82.848 150.038C86.3084 155.04 95.1316 168.39 93.7868 179.181L97.5424 177.738Z" fill="#E6E6E6"/>
<path d="M102.758 172.293L105.611 190.251C106.497 195.794 102.216 200.812 96.5912 200.812H93.5408C87.932 200.812 83.6516 195.794 84.5208 190.251L87.3744 172.293H102.758Z" fill="#E6E6E6"/>
<path d="M274.488 197.286H283.393V158.992H274.488V197.286Z" fill="#EBEBEB"/>
<path d="M231.421 197.286H240.326V158.992H231.421V197.286Z" fill="#EBEBEB"/>
<path d="M176.001 195.778L184.777 197.29L191.28 159.552L182.504 158.04L176.001 195.778Z" fill="#EBEBEB"/>
<path d="M263.449 197.282H272.354V164.039H263.449V197.282Z" fill="#EBEBEB"/>
<path d="M242.981 197.282H251.886V164.039H242.981V197.282Z" fill="#EBEBEB"/>
<path d="M191.291 197.282H200.196V164.039H191.291V197.282Z" fill="#EBEBEB"/>
<path d="M212.509 195.355L221.202 197.286L228.412 164.835L219.719 162.903L212.509 195.355Z" fill="#EBEBEB"/>
<path d="M255.741 197.288H260.202V157.091H255.741V197.288Z" fill="#EBEBEB"/>
<path d="M202.756 197.288H207.217V157.091H202.756V197.288Z" fill="#EBEBEB"/>
<path d="M170.998 166.897H127.587V196.86H170.998V166.897Z" fill="#EBEBEB"/>
<path d="M319.877 179.164H283.518V201.534H319.877V179.164Z" fill="#EBEBEB"/>
<path d="M311.382 159.501H293.194V181.87H311.382V159.501Z" fill="#EBEBEB"/>
<path d="M615.208 129.899H571.962V310.102H615.208V129.899Z" fill="#E0E0E0"/>
<path d="M448.828 310.586H610.565V129.907L448.828 129.907V310.586Z" fill="#E0E0E0"/>
<path d="M443.616 310.586H611.421V129.907L443.616 129.907V310.586Z" fill="#F0F0F0"/>
<path d="M450.791 302.29H604.524V135.666L450.791 135.666V302.29Z" fill="white"/>
<path d="M450.783 302.29H453.636V135.666H450.783V302.29Z" fill="#E0E0E0"/>
<path d="M453.157 255.484V259.978H604.922V255.484H453.157Z" fill="#E0E0E0"/>
<path d="M450.79 255.488L606.934 255.488V247.945L450.79 247.945V255.488Z" fill="#F0F0F0"/>
<path opacity="0.3" d="M340 610.845C515.615 610.845 657.98 602.534 657.98 592.28C657.98 582.027 515.615 573.716 340 573.716C164.385 573.716 22.0204 582.027 22.0204 592.28C22.0204 602.534 164.385 610.845 340 610.845Z" fill="#AED1FF"/>
<path d="M457.998 529.764H164.586C157.96 529.764 152.581 524.384 152.581 517.759V172.276C152.581 165.651 157.96 160.272 164.586 160.272H458.014C464.64 160.272 470.019 165.651 470.019 172.276V517.775C470.003 524.401 464.64 529.764 457.998 529.764Z" fill="#1877F2"/>
<path opacity="0.6" d="M458.417 529.764H165.005C158.379 529.764 153 524.384 153 517.759V172.276C153 165.651 158.379 160.272 165.005 160.272H458.434C465.059 160.272 470.438 165.651 470.438 172.276V517.775C470.422 524.401 465.059 529.764 458.417 529.764Z" fill="white"/>
<path d="M418.589 329.716H204.011V366.452H418.589V329.716Z" fill="white"/>
<g opacity="0.4">
<path d="M223.199 351.676V352.644H215.754V342.115H222.97V343.082H216.869V346.822H222.314V347.773H216.869V351.676H223.199Z" fill="#263238"/>
<path d="M224.692 348.084H228.628V349.019H224.692V348.084Z" fill="#263238"/>
<path d="M244.076 348.052V352.644H243.01V348.166C243.01 346.494 242.174 345.641 240.747 345.641C239.124 345.641 238.107 346.69 238.107 348.494V352.644H237.041V348.166C237.041 346.494 236.204 345.641 234.761 345.641C233.154 345.641 232.121 346.69 232.121 348.494V352.644H231.055V344.739H232.072V346.182C232.629 345.231 233.646 344.673 234.974 344.673C236.286 344.673 237.303 345.231 237.779 346.346C238.353 345.329 239.484 344.673 240.911 344.673C242.814 344.657 244.076 345.772 244.076 348.052Z" fill="#263238"/>
<path d="M252.965 347.724V352.627H251.948V351.397C251.473 352.217 250.538 352.709 249.226 352.709C247.438 352.709 246.34 351.774 246.34 350.413C246.34 349.2 247.127 348.166 249.39 348.166H251.899V347.691C251.899 346.33 251.128 345.608 249.652 345.608C248.636 345.608 247.668 345.969 247.012 346.543L246.536 345.739C247.34 345.067 248.504 344.673 249.751 344.673C251.801 344.657 252.965 345.69 252.965 347.724ZM251.883 350.249V348.954H249.406C247.865 348.954 247.373 349.56 247.373 350.364C247.373 351.282 248.111 351.856 249.374 351.856C250.587 351.856 251.473 351.299 251.883 350.249Z" fill="#263238"/>
<path d="M255.622 342.23C255.622 341.82 255.966 341.475 256.409 341.475C256.852 341.475 257.196 341.803 257.196 342.213C257.196 342.656 256.868 343 256.409 343C255.966 342.984 255.622 342.64 255.622 342.23ZM255.868 344.722H256.934V352.627H255.868V344.722Z" fill="#263238"/>
<path d="M259.902 341.475H260.968V352.627H259.902V341.475Z" fill="#263238"/>
</g>
<path d="M418.589 379.917H204.011V416.653H418.589V379.917Z" fill="white"/>
<g opacity="0.4">
<path d="M223.986 395.956C223.986 398.203 222.363 399.548 219.69 399.548H216.869V402.877H215.754V392.348H219.69C222.363 392.348 223.986 393.709 223.986 395.956ZM222.871 395.956C222.871 394.267 221.756 393.316 219.657 393.316H216.852V398.58H219.657C221.772 398.58 222.871 397.612 222.871 395.956Z" fill="#263238"/>
<path d="M232.072 397.973V402.877H231.055V401.647C230.579 402.467 229.644 402.959 228.332 402.959C226.545 402.959 225.446 402.024 225.446 400.663C225.446 399.449 226.233 398.416 228.496 398.416H231.006V397.94C231.006 396.579 230.235 395.858 228.759 395.858C227.742 395.858 226.774 396.218 226.135 396.792L225.659 395.989C226.463 395.316 227.627 394.923 228.874 394.923C230.907 394.906 232.072 395.923 232.072 397.973ZM231.006 400.499V399.203H228.529C226.988 399.203 226.496 399.81 226.496 400.614C226.496 401.532 227.234 402.106 228.496 402.106C229.694 402.106 230.579 401.532 231.006 400.499Z" fill="#263238"/>
<path d="M233.876 401.975L234.351 401.138C234.991 401.63 236.057 402.024 237.156 402.024C238.664 402.024 239.271 401.516 239.271 400.728C239.271 398.662 234.138 400.286 234.138 397.17C234.138 395.874 235.253 394.906 237.27 394.906C238.287 394.906 239.402 395.185 240.075 395.644L239.616 396.497C238.927 396.022 238.09 395.825 237.287 395.825C235.86 395.825 235.22 396.382 235.22 397.137C235.22 399.269 240.354 397.662 240.354 400.696C240.354 402.057 239.156 402.959 237.09 402.959C235.778 402.959 234.515 402.532 233.876 401.975Z" fill="#263238"/>
<path d="M241.223 401.975L241.698 401.138C242.338 401.63 243.404 402.024 244.503 402.024C246.012 402.024 246.618 401.516 246.618 400.728C246.618 398.662 241.485 400.286 241.485 397.17C241.485 395.874 242.6 394.906 244.618 394.906C245.634 394.906 246.75 395.185 247.422 395.644L246.963 396.497C246.274 396.022 245.438 395.825 244.634 395.825C243.207 395.825 242.568 396.382 242.568 397.137C242.568 399.269 247.701 397.662 247.701 400.696C247.701 402.057 246.504 402.959 244.437 402.959C243.142 402.959 241.879 402.532 241.223 401.975Z" fill="#263238"/>
<path d="M261.132 394.972L258.148 402.877H257.147L254.654 396.399L252.162 402.877H251.161L248.176 394.972H249.193L251.67 401.696L254.212 394.972H255.13L257.656 401.696L260.165 394.972H261.132Z" fill="#263238"/>
<path d="M261.723 398.924C261.723 396.579 263.445 394.906 265.757 394.906C268.07 394.906 269.775 396.579 269.775 398.924C269.775 401.27 268.07 402.959 265.757 402.959C263.445 402.959 261.723 401.27 261.723 398.924ZM268.693 398.924C268.693 397.071 267.446 395.841 265.757 395.841C264.068 395.841 262.805 397.071 262.805 398.924C262.805 400.778 264.068 402.008 265.757 402.008C267.446 402.008 268.693 400.778 268.693 398.924Z" fill="#263238"/>
<path d="M275.942 394.906V395.94C275.86 395.94 275.761 395.923 275.679 395.923C274.023 395.923 273.022 396.973 273.022 398.842V402.877H271.956V394.972H272.973V396.514C273.482 395.464 274.482 394.906 275.942 394.906Z" fill="#263238"/>
<path d="M285.011 391.708V402.86H283.994V401.302C283.354 402.368 282.256 402.942 280.944 402.942C278.68 402.942 277.008 401.302 277.008 398.908C277.008 396.514 278.697 394.89 280.944 394.89C282.206 394.89 283.289 395.431 283.945 396.448V391.692H285.011V391.708ZM283.961 398.924C283.961 397.071 282.698 395.841 281.026 395.841C279.336 395.841 278.074 397.071 278.074 398.924C278.074 400.778 279.336 402.008 281.026 402.008C282.698 402.008 283.961 400.778 283.961 398.924Z" fill="#263238"/>
</g>
<path opacity="0.2" d="M418.589 454.127H204.011V490.863H418.589V454.127Z" fill="black"/>
<g opacity="0.5">
<path d="M256.196 437.235H252.686L251.932 438.908H251.243L254.113 432.626H254.769L257.639 438.908H256.934L256.196 437.235ZM255.95 436.71L254.441 433.332L252.932 436.71H255.95Z" fill="black"/>
<path d="M258.558 432.249H259.197V438.908H258.558V432.249Z" fill="black"/>
<path d="M263.363 434.168V434.791C263.314 434.791 263.248 434.775 263.215 434.775C262.231 434.775 261.624 435.398 261.624 436.513V438.924H260.985V434.201H261.592V435.119C261.887 434.496 262.477 434.168 263.363 434.168Z" fill="black"/>
<path d="M268.578 436.759H264.626C264.691 437.743 265.446 438.399 266.479 438.399C267.053 438.399 267.561 438.186 267.922 437.776L268.283 438.186C267.856 438.694 267.2 438.957 266.462 438.957C264.986 438.957 263.986 437.956 263.986 436.546C263.986 435.152 264.97 434.152 266.298 434.152C267.627 434.152 268.594 435.136 268.594 436.546C268.594 436.612 268.578 436.677 268.578 436.759ZM264.626 436.284H267.971C267.889 435.365 267.217 434.709 266.298 434.709C265.38 434.709 264.708 435.349 264.626 436.284Z" fill="black"/>
<path d="M273.318 435.988V438.924H272.711V438.186C272.416 438.678 271.858 438.973 271.087 438.973C270.021 438.973 269.365 438.416 269.365 437.596C269.365 436.874 269.824 436.251 271.186 436.251H272.694V435.972C272.694 435.168 272.235 434.726 271.35 434.726C270.743 434.726 270.169 434.939 269.775 435.283L269.48 434.808C269.956 434.398 270.661 434.168 271.399 434.168C272.629 434.168 273.318 434.775 273.318 435.988ZM272.694 437.497V436.726H271.218C270.3 436.726 270.005 437.087 270.005 437.579C270.005 438.12 270.448 438.465 271.202 438.465C271.907 438.465 272.432 438.12 272.694 437.497Z" fill="black"/>
<path d="M279.386 432.249V438.908H278.779V437.973C278.385 438.612 277.729 438.957 276.958 438.957C275.614 438.957 274.597 437.973 274.597 436.546C274.597 435.119 275.597 434.152 276.958 434.152C277.713 434.152 278.352 434.48 278.762 435.086V432.249H279.386ZM278.762 436.562C278.762 435.464 278.008 434.726 277.008 434.726C276.007 434.726 275.253 435.464 275.253 436.562C275.253 437.661 276.007 438.399 277.008 438.399C278.008 438.399 278.762 437.661 278.762 436.562Z" fill="black"/>
<path d="M285.142 434.201L282.78 439.498C282.387 440.416 281.878 440.728 281.206 440.728C280.763 440.728 280.337 440.58 280.058 440.302L280.353 439.826C280.583 440.056 280.878 440.187 281.222 440.187C281.649 440.187 281.928 439.99 282.206 439.4L282.42 438.94L280.304 434.217H280.96L282.748 438.235L284.519 434.217H285.142V434.201Z" fill="black"/>
<path d="M291.964 435.988V438.924H291.358V438.186C291.062 438.678 290.505 438.973 289.734 438.973C288.668 438.973 288.012 438.416 288.012 437.596C288.012 436.874 288.471 436.251 289.832 436.251H291.341V435.972C291.341 435.168 290.882 434.726 289.996 434.726C289.39 434.726 288.816 434.939 288.422 435.283L288.127 434.808C288.602 434.398 289.308 434.168 290.046 434.168C291.276 434.168 291.964 434.775 291.964 435.988ZM291.325 437.497V436.726H289.849C288.93 436.726 288.635 437.087 288.635 437.579C288.635 438.12 289.078 438.465 289.832 438.465C290.554 438.465 291.079 438.12 291.325 437.497Z" fill="black"/>
<path d="M303.854 436.185V438.924H303.215V436.251C303.215 435.25 302.706 434.742 301.854 434.742C300.886 434.742 300.279 435.365 300.279 436.448V438.924H299.64V436.251C299.64 435.25 299.131 434.742 298.278 434.742C297.311 434.742 296.704 435.365 296.704 436.448V438.924H296.064V434.201H296.671V435.07C296.999 434.512 297.622 434.168 298.41 434.168C299.197 434.168 299.804 434.496 300.082 435.168C300.427 434.562 301.099 434.168 301.952 434.168C303.1 434.168 303.854 434.824 303.854 436.185Z" fill="black"/>
<path d="M309.726 436.759H305.773C305.839 437.743 306.593 438.399 307.626 438.399C308.2 438.399 308.709 438.186 309.07 437.776L309.43 438.186C309.004 438.694 308.348 438.957 307.61 438.957C306.134 438.957 305.134 437.956 305.134 436.546C305.134 435.152 306.118 434.152 307.446 434.152C308.774 434.152 309.742 435.136 309.742 436.546C309.742 436.612 309.726 436.677 309.726 436.759ZM305.773 436.284H309.119C309.037 435.365 308.364 434.709 307.446 434.709C306.528 434.709 305.855 435.349 305.773 436.284Z" fill="black"/>
<path d="M318.844 436.185V438.924H318.204V436.251C318.204 435.25 317.696 434.742 316.843 434.742C315.876 434.742 315.269 435.365 315.269 436.448V438.924H314.629V436.251C314.629 435.25 314.121 434.742 313.268 434.742C312.3 434.742 311.694 435.365 311.694 436.448V438.924H311.054V434.201H311.661V435.07C311.989 434.512 312.612 434.168 313.399 434.168C314.186 434.168 314.793 434.496 315.072 435.168C315.416 434.562 316.089 434.168 316.942 434.168C318.09 434.168 318.844 434.824 318.844 436.185Z" fill="black"/>
<path d="M325.371 436.562C325.371 437.989 324.371 438.973 323.026 438.973C322.239 438.973 321.583 438.629 321.206 437.989V438.924H320.599V432.266H321.238V435.103C321.632 434.496 322.288 434.168 323.042 434.168C324.371 434.168 325.371 435.136 325.371 436.562ZM324.732 436.562C324.732 435.464 323.961 434.726 322.977 434.726C321.976 434.726 321.222 435.464 321.222 436.562C321.222 437.661 321.976 438.399 322.977 438.399C323.977 438.399 324.732 437.661 324.732 436.562Z" fill="black"/>
<path d="M330.8 436.759H326.847C326.913 437.743 327.667 438.399 328.7 438.399C329.274 438.399 329.783 438.186 330.144 437.776L330.504 438.186C330.078 438.694 329.422 438.957 328.684 438.957C327.208 438.957 326.208 437.956 326.208 436.546C326.208 435.152 327.192 434.152 328.52 434.152C329.848 434.152 330.816 435.136 330.816 436.546C330.8 436.612 330.8 436.677 330.8 436.759ZM326.847 436.284H330.193C330.111 435.365 329.438 434.709 328.52 434.709C327.602 434.709 326.929 435.349 326.847 436.284Z" fill="black"/>
<path d="M334.49 434.168V434.791C334.44 434.791 334.375 434.775 334.342 434.775C333.358 434.775 332.751 435.398 332.751 436.513V438.924H332.112V434.201H332.718V435.119C333.014 434.496 333.62 434.168 334.49 434.168Z" fill="black"/>
<path d="M338.622 434.25C338.622 433.61 338.098 433.151 337.179 433.151C336.408 433.151 335.851 433.397 335.457 433.873L334.982 433.512C335.474 432.922 336.212 432.577 337.212 432.577C338.475 432.577 339.278 433.184 339.278 434.135C339.278 435.677 337.638 435.742 337.638 437.022H336.966C336.982 435.546 338.622 435.414 338.622 434.25ZM336.851 438.498C336.851 438.235 337.064 438.038 337.31 438.038C337.573 438.038 337.786 438.235 337.786 438.498C337.786 438.744 337.573 438.973 337.31 438.973C337.048 438.973 336.851 438.744 336.851 438.498Z" fill="black"/>
<path d="M343.067 432.626H344.526V437.727H347.675V438.908H343.067V432.626Z" fill="black"/>
<path d="M348.003 436.513C348.003 435.054 349.118 434.02 350.66 434.02C352.202 434.02 353.317 435.054 353.317 436.513C353.317 437.973 352.202 439.006 350.66 439.006C349.135 438.99 348.003 437.956 348.003 436.513ZM351.89 436.513C351.89 435.677 351.365 435.168 350.66 435.168C349.955 435.168 349.414 435.677 349.414 436.513C349.414 437.35 349.955 437.858 350.66 437.858C351.365 437.842 351.89 437.35 351.89 436.513Z" fill="black"/>
<path d="M359.237 434.086V438.104C359.237 439.908 358.27 440.728 356.531 440.728C355.613 440.728 354.727 440.498 354.153 440.056L354.711 439.055C355.121 439.383 355.793 439.596 356.416 439.596C357.4 439.596 357.843 439.154 357.843 438.268V438.055C357.482 438.465 356.941 438.662 356.318 438.662C354.973 438.662 353.907 437.743 353.907 436.333C353.907 434.922 354.99 434.004 356.318 434.004C356.99 434.004 357.548 434.234 357.925 434.693V434.07H359.237V434.086ZM357.86 436.349C357.86 435.644 357.335 435.168 356.597 435.168C355.859 435.168 355.318 435.644 355.318 436.349C355.318 437.054 355.859 437.53 356.597 437.53C357.335 437.546 357.86 437.071 357.86 436.349Z" fill="black"/>
<path d="M362.927 432.626C362.927 432.184 363.272 431.839 363.796 431.839C364.321 431.839 364.666 432.167 364.666 432.594C364.666 433.053 364.321 433.397 363.796 433.397C363.272 433.414 362.927 433.069 362.927 432.626ZM363.091 434.086H364.485V438.924H363.091V434.086Z" fill="black"/>
<path d="M370.734 436.152V438.924H369.34V436.366C369.34 435.578 368.979 435.218 368.356 435.218C367.683 435.218 367.191 435.628 367.191 436.513V438.908H365.797V434.07H367.142V434.644C367.519 434.234 368.093 434.004 368.749 434.004C369.881 434.02 370.734 434.676 370.734 436.152Z" fill="black"/>
</g>
<path d="M418.589 451.88H204.011V488.616H418.589V451.88Z" fill="#1877F2"/>
<path d="M283.584 475.955L280.878 472.085C280.632 472.101 280.353 472.118 280.091 472.118H276.975V475.939H275.171V463.36H280.074C283.338 463.36 285.322 465.016 285.322 467.739C285.322 469.674 284.322 471.084 282.551 471.708L285.536 475.922H283.584V475.955ZM283.535 467.755C283.535 465.951 282.338 464.934 280.025 464.934H276.975V470.592H280.025C282.338 470.609 283.535 469.559 283.535 467.755Z" fill="white"/>
<path d="M296.573 471.773H288.848C289.062 473.446 290.406 474.561 292.292 474.561C293.408 474.561 294.342 474.184 295.048 473.413L295.999 474.528C295.13 475.529 293.818 476.07 292.243 476.07C289.176 476.07 287.126 474.036 287.126 471.199C287.126 468.378 289.16 466.345 291.899 466.345C294.654 466.345 296.606 468.329 296.606 471.248C296.606 471.396 296.589 471.609 296.573 471.773ZM288.848 470.527H294.966C294.785 468.92 293.588 467.788 291.915 467.788C290.242 467.804 289.029 468.92 288.848 470.527Z" fill="white"/>
<path d="M308.118 466.427V474.66C308.118 478.022 306.413 479.547 303.182 479.547C301.444 479.547 299.672 479.055 298.639 478.12L299.459 476.792C300.345 477.546 301.722 478.038 303.116 478.038C305.363 478.038 306.38 477.005 306.38 474.84V474.086C305.56 475.07 304.314 475.562 302.952 475.562C300.197 475.562 298.114 473.692 298.114 470.937C298.114 468.182 300.197 466.345 302.952 466.345C304.379 466.345 305.658 466.87 306.478 467.903V466.427H308.118ZM306.429 470.937C306.429 469.084 305.068 467.854 303.166 467.854C301.247 467.854 299.886 469.1 299.886 470.937C299.886 472.774 301.247 474.053 303.166 474.053C305.052 474.053 306.429 472.774 306.429 470.937Z" fill="white"/>
<path d="M311.103 463.491C311.103 462.868 311.612 462.36 312.268 462.36C312.94 462.36 313.432 462.852 313.432 463.458C313.432 464.098 312.94 464.606 312.268 464.606C311.612 464.606 311.103 464.114 311.103 463.491ZM311.415 466.427H313.137V475.955H311.415V466.427Z" fill="white"/>
<path d="M315.22 474.955L315.941 473.594C316.745 474.168 318.04 474.578 319.287 474.578C320.894 474.578 321.55 474.086 321.55 473.282C321.55 471.15 315.531 473.003 315.531 469.198C315.531 467.493 317.056 466.345 319.5 466.345C320.746 466.345 322.14 466.673 322.96 467.214L322.222 468.575C321.353 468.018 320.402 467.821 319.467 467.821C317.958 467.821 317.22 468.378 317.22 469.133C317.22 471.38 323.256 469.543 323.256 473.249C323.256 474.971 321.681 476.07 319.139 476.07C317.581 476.07 316.007 475.578 315.22 474.955Z" fill="white"/>
<path d="M330.783 475.398C330.258 475.84 329.471 476.07 328.7 476.07C326.782 476.07 325.683 475.004 325.683 473.085V467.854H324.059V466.427H325.683V464.344H327.405V466.427H330.144V467.854H327.405V473.003C327.405 474.02 327.946 474.61 328.897 474.61C329.406 474.61 329.881 474.446 330.242 474.168L330.783 475.398Z" fill="white"/>
<path d="M341.115 471.773H333.391C333.604 473.446 334.949 474.561 336.835 474.561C337.95 474.561 338.885 474.184 339.59 473.413L340.541 474.528C339.672 475.529 338.36 476.07 336.786 476.07C333.719 476.07 331.669 474.036 331.669 471.199C331.669 468.378 333.702 466.345 336.441 466.345C339.196 466.345 341.148 468.329 341.148 471.248C341.164 471.396 341.148 471.609 341.115 471.773ZM333.391 470.527H339.508C339.328 468.92 338.13 467.788 336.458 467.788C334.801 467.804 333.571 468.92 333.391 470.527Z" fill="white"/>
<path d="M348.676 466.345V468.018C348.528 468.001 348.413 468.001 348.282 468.001C346.429 468.001 345.281 469.133 345.281 471.216V475.955H343.559V466.427H345.215V468.034C345.822 466.919 347.003 466.345 348.676 466.345Z" fill="white"/>
<path d="M418.589 279.532H204.011V316.268H418.589V279.532Z" fill="white"/>
<g opacity="0.4">
<path d="M215.754 291.914H216.869V301.476H222.756V302.443H215.754V291.914Z" fill="#263238"/>
<path d="M230.382 297.54V302.443H229.366V301.213C228.89 302.033 227.955 302.525 226.643 302.525C224.856 302.525 223.757 301.59 223.757 300.229C223.757 299.016 224.544 297.982 226.807 297.982H229.316V297.507C229.316 296.146 228.546 295.408 227.07 295.408C226.053 295.408 225.085 295.768 224.446 296.342L223.97 295.539C224.774 294.866 225.938 294.473 227.184 294.473C229.218 294.473 230.382 295.49 230.382 297.54ZM229.316 300.065V298.77H226.84C225.298 298.77 224.806 299.376 224.806 300.18C224.806 301.098 225.544 301.672 226.807 301.672C228.004 301.672 228.89 301.098 229.316 300.065Z" fill="#263238"/>
<path d="M232.186 301.541L232.662 300.705C233.302 301.197 234.368 301.59 235.466 301.59C236.975 301.59 237.582 301.082 237.582 300.295C237.582 298.228 232.449 299.852 232.449 296.736C232.449 295.44 233.564 294.473 235.581 294.473C236.598 294.473 237.713 294.752 238.386 295.211L237.926 296.064C237.238 295.588 236.401 295.391 235.598 295.391C234.171 295.391 233.531 295.949 233.531 296.703C233.531 298.835 238.664 297.228 238.664 300.262C238.664 301.623 237.467 302.525 235.401 302.525C234.105 302.509 232.842 302.099 232.186 301.541Z" fill="#263238"/>
<path d="M244.814 301.968C244.388 302.345 243.765 302.525 243.142 302.525C241.649 302.525 240.829 301.689 240.829 300.229V295.44H239.419V294.538H240.829V292.816H241.895V294.538H244.306V295.44H241.895V300.164C241.895 301.098 242.371 301.607 243.256 301.607C243.699 301.607 244.126 301.476 244.437 301.197L244.814 301.968Z" fill="#263238"/>
<path d="M259.706 291.914V302.443H258.787L252.014 293.899V302.443H250.899V291.914H251.817L258.607 300.459V291.914H259.706Z" fill="#263238"/>
<path d="M268.89 297.54V302.443H267.873V301.213C267.397 302.033 266.462 302.525 265.15 302.525C263.363 302.525 262.264 301.59 262.264 300.229C262.264 299.016 263.051 297.982 265.314 297.982H267.824V297.507C267.824 296.146 267.053 295.408 265.577 295.408C264.56 295.408 263.592 295.768 262.936 296.342L262.461 295.539C263.264 294.866 264.429 294.473 265.675 294.473C267.725 294.473 268.89 295.49 268.89 297.54ZM267.824 300.065V298.77H265.347C263.806 298.77 263.314 299.376 263.314 300.18C263.314 301.098 264.052 301.672 265.314 301.672C266.512 301.672 267.397 301.098 267.824 300.065Z" fill="#263238"/>
<path d="M284.847 297.851V302.443H283.781V297.966C283.781 296.293 282.944 295.44 281.518 295.44C279.894 295.44 278.877 296.49 278.877 298.294V302.443H277.811V297.966C277.811 296.293 276.975 295.44 275.532 295.44C273.924 295.44 272.891 296.49 272.891 298.294V302.443H271.825V294.538H272.842V295.982C273.4 295.03 274.416 294.473 275.745 294.473C277.057 294.473 278.074 295.03 278.549 296.146C279.123 295.129 280.255 294.473 281.682 294.473C283.584 294.473 284.847 295.588 284.847 297.851Z" fill="#263238"/>
<path d="M294.67 298.819H288.045C288.16 300.475 289.422 301.574 291.161 301.574C292.128 301.574 292.981 301.23 293.588 300.541L294.195 301.23C293.49 302.066 292.391 302.525 291.144 302.525C288.684 302.525 286.995 300.836 286.995 298.491C286.995 296.146 288.635 294.473 290.866 294.473C293.096 294.473 294.703 296.113 294.703 298.491C294.687 298.573 294.67 298.704 294.67 298.819ZM288.045 298.015H293.654C293.522 296.474 292.391 295.391 290.849 295.391C289.308 295.391 288.176 296.474 288.045 298.015Z" fill="#263238"/>
</g>
<path d="M418.589 229.348H204.011V266.084H418.589V229.348Z" fill="white"/>
<g opacity="0.4">
<path d="M216.869 242.682V246.814H222.314V247.782H216.869V252.243H215.754V241.714H222.97V242.682H216.869Z" fill="#263238"/>
<path d="M224.659 241.845C224.659 241.435 225.003 241.091 225.446 241.091C225.889 241.091 226.233 241.419 226.233 241.829C226.233 242.272 225.905 242.616 225.446 242.616C225.003 242.616 224.659 242.272 224.659 241.845ZM224.888 244.338H225.954V252.243H224.888V244.338Z" fill="#263238"/>
<path d="M232.924 244.289V245.322C232.842 245.322 232.744 245.306 232.662 245.306C231.006 245.306 230.005 246.355 230.005 248.225V252.259H228.939V244.354H229.956V245.896C230.464 244.846 231.465 244.289 232.924 244.289Z" fill="#263238"/>
<path d="M233.81 251.357L234.286 250.521C234.925 251.013 235.991 251.406 237.09 251.406C238.599 251.406 239.206 250.898 239.206 250.111C239.206 248.044 234.072 249.668 234.072 246.552C234.072 245.256 235.188 244.289 237.205 244.289C238.222 244.289 239.337 244.568 240.009 245.027L239.55 245.88C238.861 245.404 238.025 245.207 237.221 245.207C235.794 245.207 235.155 245.765 235.155 246.519C235.155 248.651 240.288 247.044 240.288 250.078C240.288 251.439 239.091 252.341 237.024 252.341C235.729 252.325 234.466 251.915 233.81 251.357Z" fill="#263238"/>
<path d="M246.438 251.767C246.012 252.144 245.388 252.325 244.765 252.325C243.273 252.325 242.453 251.488 242.453 250.029V245.24H241.042V244.338H242.453V242.616H243.519V244.338H245.93V245.24H243.519V249.963C243.519 250.898 243.994 251.406 244.88 251.406C245.323 251.406 245.749 251.275 246.061 250.996L246.438 251.767Z" fill="#263238"/>
<path d="M261.329 241.73V252.259H260.411L253.638 243.715V252.259H252.522V241.73H253.441L260.23 250.275V241.73H261.329Z" fill="#263238"/>
<path d="M270.513 247.356V252.259H269.48V251.029C269.004 251.849 268.07 252.341 266.758 252.341C264.97 252.341 263.871 251.406 263.871 250.045C263.871 248.832 264.658 247.798 266.922 247.798H269.431V247.323C269.431 245.962 268.66 245.24 267.184 245.24C266.167 245.24 265.2 245.601 264.56 246.175L264.084 245.371C264.888 244.699 266.052 244.305 267.299 244.305C269.349 244.289 270.513 245.306 270.513 247.356ZM269.447 249.881V248.586H266.971C265.429 248.586 264.937 249.192 264.937 249.996C264.937 250.914 265.675 251.488 266.938 251.488C268.135 251.488 269.021 250.914 269.447 249.881Z" fill="#263238"/>
<path d="M286.47 247.667V252.259H285.404V247.782C285.404 246.109 284.568 245.256 283.141 245.256C281.518 245.256 280.501 246.306 280.501 248.11V252.259H279.435V247.782C279.435 246.109 278.598 245.256 277.155 245.256C275.548 245.256 274.515 246.306 274.515 248.11V252.259H273.449V244.354H274.466V245.798C275.023 244.846 276.04 244.289 277.368 244.289C278.68 244.289 279.697 244.846 280.173 245.962C280.747 244.945 281.878 244.289 283.305 244.289C285.208 244.289 286.47 245.388 286.47 247.667Z" fill="#263238"/>
<path d="M296.294 248.635H289.668C289.783 250.291 291.046 251.39 292.784 251.39C293.752 251.39 294.605 251.046 295.212 250.357L295.818 251.046C295.113 251.882 294.014 252.341 292.768 252.341C290.308 252.341 288.619 250.652 288.619 248.307C288.619 245.962 290.259 244.289 292.489 244.289C294.72 244.289 296.327 245.929 296.327 248.307C296.31 248.389 296.294 248.504 296.294 248.635ZM289.668 247.831H295.277C295.146 246.29 294.014 245.207 292.473 245.207C290.931 245.207 289.816 246.29 289.668 247.831Z" fill="#263238"/>
</g>
<path d="M281.202 206V187.818H283.403V204.047H291.855V206H281.202ZM300.52 206.284C299.289 206.284 298.209 205.991 297.279 205.405C296.356 204.819 295.634 204 295.113 202.946C294.598 201.893 294.341 200.661 294.341 199.253C294.341 197.832 294.598 196.592 295.113 195.533C295.634 194.474 296.356 193.651 297.279 193.065C298.209 192.479 299.289 192.186 300.52 192.186C301.751 192.186 302.828 192.479 303.751 193.065C304.681 193.651 305.403 194.474 305.918 195.533C306.438 196.592 306.699 197.832 306.699 199.253C306.699 200.661 306.438 201.893 305.918 202.946C305.403 204 304.681 204.819 303.751 205.405C302.828 205.991 301.751 206.284 300.52 206.284ZM300.52 204.402C301.455 204.402 302.224 204.162 302.828 203.683C303.432 203.203 303.879 202.573 304.169 201.792C304.459 201.011 304.604 200.164 304.604 199.253C304.604 198.341 304.459 197.492 304.169 196.705C303.879 195.918 303.432 195.281 302.828 194.796C302.224 194.311 301.455 194.068 300.52 194.068C299.585 194.068 298.815 194.311 298.212 194.796C297.608 195.281 297.161 195.918 296.871 196.705C296.581 197.492 296.436 198.341 296.436 199.253C296.436 200.164 296.581 201.011 296.871 201.792C297.161 202.573 297.608 203.203 298.212 203.683C298.815 204.162 299.585 204.402 300.52 204.402ZM315.401 211.398C314.389 211.398 313.519 211.268 312.791 211.007C312.063 210.753 311.457 210.415 310.971 209.995C310.492 209.581 310.11 209.137 309.826 208.663L311.495 207.491C311.685 207.74 311.924 208.024 312.214 208.344C312.504 208.669 312.901 208.95 313.404 209.187C313.913 209.43 314.579 209.551 315.401 209.551C316.502 209.551 317.411 209.285 318.127 208.752C318.843 208.219 319.201 207.385 319.201 206.249V203.479H319.024C318.87 203.727 318.651 204.035 318.367 204.402C318.088 204.763 317.686 205.086 317.159 205.37C316.638 205.648 315.934 205.787 315.046 205.787C313.945 205.787 312.957 205.527 312.081 205.006C311.211 204.485 310.522 203.727 310.013 202.733C309.509 201.739 309.258 200.531 309.258 199.111C309.258 197.714 309.504 196.498 309.995 195.462C310.486 194.42 311.17 193.615 312.046 193.047C312.921 192.473 313.934 192.186 315.082 192.186C315.97 192.186 316.674 192.334 317.195 192.63C317.721 192.92 318.124 193.251 318.402 193.624C318.686 193.991 318.905 194.293 319.059 194.53H319.272V192.364H321.296V206.391C321.296 207.562 321.03 208.515 320.497 209.249C319.97 209.989 319.26 210.531 318.367 210.874C317.479 211.223 316.49 211.398 315.401 211.398ZM315.33 203.905C316.171 203.905 316.881 203.712 317.461 203.328C318.041 202.943 318.482 202.39 318.784 201.668C319.086 200.946 319.237 200.081 319.237 199.075C319.237 198.093 319.089 197.226 318.793 196.474C318.497 195.722 318.059 195.134 317.479 194.707C316.899 194.281 316.183 194.068 315.33 194.068C314.443 194.068 313.703 194.293 313.111 194.743C312.525 195.193 312.084 195.796 311.788 196.554C311.498 197.312 311.353 198.152 311.353 199.075C311.353 200.022 311.501 200.86 311.797 201.588C312.099 202.31 312.543 202.878 313.129 203.292C313.72 203.701 314.454 203.905 315.33 203.905ZM325.131 206V192.364H327.227V206H325.131ZM326.197 190.091C325.788 190.091 325.436 189.952 325.14 189.674C324.85 189.395 324.705 189.061 324.705 188.67C324.705 188.28 324.85 187.945 325.14 187.667C325.436 187.389 325.788 187.25 326.197 187.25C326.605 187.25 326.954 187.389 327.244 187.667C327.54 187.945 327.688 188.28 327.688 188.67C327.688 189.061 327.54 189.395 327.244 189.674C326.954 189.952 326.605 190.091 326.197 190.091ZM333.159 197.797V206H331.064V192.364H333.088V194.494H333.266C333.585 193.802 334.071 193.246 334.722 192.825C335.373 192.399 336.213 192.186 337.243 192.186C338.166 192.186 338.974 192.375 339.667 192.754C340.359 193.127 340.898 193.695 341.282 194.459C341.667 195.216 341.86 196.175 341.86 197.335V206H339.764V197.477C339.764 196.406 339.486 195.571 338.93 194.974C338.374 194.37 337.61 194.068 336.639 194.068C335.971 194.068 335.373 194.213 334.846 194.503C334.325 194.793 333.914 195.216 333.612 195.773C333.31 196.329 333.159 197.004 333.159 197.797Z" fill="#263238"/>
<path d="M153.762 476.349C153.762 476.349 142.905 467.296 133.59 476.349C124.274 485.402 122.487 541.473 122.487 541.473" stroke="#1877F2" stroke-width="1.54914" stroke-miterlimit="10"/>
<path d="M121.716 552.297C121.716 552.297 128.112 486.484 104.02 458.834" stroke="#1877F2" stroke-width="1.54914" stroke-miterlimit="10"/>
<path d="M124.012 545.36C124.012 545.36 119.076 470.445 137.148 453.832" stroke="#1877F2" stroke-width="1.54914" stroke-miterlimit="10"/>
<path d="M121.716 545.36C121.716 545.36 121.29 495.848 107.874 488.157C94.4428 480.465 87.604 505.557 87.604 505.557" stroke="#1877F2" stroke-width="1.54914" stroke-miterlimit="10"/>
<path d="M127.03 545.36C127.03 545.36 124.832 507.361 135.246 493.766C145.644 480.186 156.599 499.588 156.599 499.588" stroke="#1877F2" stroke-width="1.54914" stroke-miterlimit="10"/>
<path d="M123.405 550.46C123.405 550.46 130.129 461.589 118.994 446.517" stroke="#1877F2" stroke-width="1.54914" stroke-miterlimit="10"/>
<path d="M96.378 495.373C96.378 495.373 103.069 497.849 101.085 503.671C99.1004 509.493 77.928 519.087 77.928 519.087C77.928 519.087 69.0556 510.953 77.2064 497.734C85.3408 484.532 96.1976 491.207 96.378 495.373Z" fill="#1877F2"/>
<path opacity="0.2" d="M96.378 495.373C96.378 495.373 103.069 497.849 101.085 503.671C99.1004 509.493 77.928 519.087 77.928 519.087C77.928 519.087 69.0556 510.953 77.2064 497.734C85.3408 484.532 96.1976 491.207 96.378 495.373Z" fill="black"/>
<path d="M125.488 484.286C125.488 484.286 118.354 483.991 117.96 490.141C117.55 496.291 133.409 513.282 133.409 513.282C133.409 513.282 144.725 509.198 142.298 493.864C139.854 478.514 127.259 480.498 125.488 484.286Z" fill="#1877F2"/>
<path opacity="0.2" d="M125.488 484.286C125.488 484.286 118.354 483.991 117.96 490.141C117.55 496.291 133.409 513.282 133.409 513.282C133.409 513.282 144.725 509.198 142.298 493.864C139.854 478.514 127.259 480.498 125.488 484.286Z" fill="black"/>
<path d="M131.523 454.865C131.523 454.865 126.767 454.356 127.144 451.454C127.522 448.551 145.627 441.105 156.304 453.159C156.304 453.159 149.465 464.902 139.576 465.049C129.703 465.213 131.523 454.865 131.523 454.865Z" fill="#1877F2"/>
<path opacity="0.2" d="M131.523 454.865C131.523 454.865 126.767 454.356 127.144 451.454C127.522 448.551 145.627 441.105 156.304 453.159C156.304 453.159 149.465 464.902 139.576 465.049C129.703 465.213 131.523 454.865 131.523 454.865Z" fill="black"/>
<path d="M122.667 447.829C122.667 447.829 126.964 449.912 128.178 447.255C129.391 444.598 117.96 428.707 102.528 433.282C102.528 433.282 102.118 446.862 110.433 452.224C118.731 457.571 122.667 447.829 122.667 447.829Z" fill="#1877F2"/>
<path opacity="0.2" d="M122.667 447.829C122.667 447.829 126.964 449.912 128.178 447.255C129.391 444.598 117.96 428.707 102.528 433.282C102.528 433.282 102.118 446.862 110.433 452.224C118.731 457.571 122.667 447.829 122.667 447.829Z" fill="black"/>
<path d="M145.168 493.028C145.168 493.028 141.888 490.371 145.43 489.092C148.973 487.796 166.34 488.173 166.521 505.377C166.521 505.377 146.283 508.739 143.774 502.179C141.281 495.619 145.168 493.028 145.168 493.028Z" fill="#1877F2"/>
<path opacity="0.2" d="M145.168 493.028C145.168 493.028 141.888 490.371 145.43 489.092C148.973 487.796 166.34 488.173 166.521 505.377C166.521 505.377 146.283 508.739 143.774 502.179C141.281 495.619 145.168 493.028 145.168 493.028Z" fill="black"/>
<path d="M103.906 454.438C103.906 454.438 107.186 451.782 103.643 450.502C100.101 449.207 82.7332 449.584 82.5528 466.788C82.5528 466.788 102.79 470.15 105.3 463.59C107.792 457.03 103.906 454.438 103.906 454.438Z" fill="#1877F2"/>
<path opacity="0.2" d="M103.906 454.438C103.906 454.438 107.186 451.782 103.643 450.502C100.101 449.207 82.7332 449.584 82.5528 466.788C82.5528 466.788 102.79 470.15 105.3 463.59C107.792 457.03 103.906 454.438 103.906 454.438Z" fill="black"/>
<path d="M114.598 468.296C114.598 468.296 114.894 465.082 112.286 466.345C109.678 467.608 100.626 477.382 110.023 486.648C110.023 486.648 122.667 477.284 120.388 472.413C118.108 467.542 114.598 468.296 114.598 468.296Z" fill="#1877F2"/>
<path opacity="0.2" d="M114.598 468.296C114.598 468.296 114.894 465.082 112.286 466.345C109.678 467.608 100.626 477.382 110.023 486.648C110.023 486.648 122.667 477.284 120.388 472.413C118.108 467.542 114.598 468.296 114.598 468.296Z" fill="black"/>
<path d="M148.104 472.888C148.104 472.888 146.136 470.314 149.022 470.002C151.892 469.69 164.766 473.118 161.765 485.976C161.765 485.976 146.086 484.795 145.414 479.465C144.742 474.102 148.104 472.888 148.104 472.888Z" fill="#1877F2"/>
<path opacity="0.2" d="M148.104 472.888C148.104 472.888 146.136 470.314 149.022 470.002C151.892 469.69 164.766 473.118 161.765 485.976C161.765 485.976 146.086 484.795 145.414 479.465C144.742 474.102 148.104 472.888 148.104 472.888Z" fill="black"/>
<path d="M97.5424 593.068H148.235L154.975 543.769H90.802L97.5424 593.068Z" fill="#263238"/>
<path opacity="0.2" d="M97.5424 593.068H148.235L154.975 543.769H90.802L97.5424 593.068Z" fill="white"/>
<path d="M161.338 539.768V544.458C161.338 547.59 158.796 550.132 155.664 550.132H89.49C86.3576 550.132 83.8156 547.59 83.8156 544.458V539.768H161.338Z" fill="#263238"/>
<path d="M583.737 72.4988H536.62C528.6 72.4988 522.106 78.9932 522.106 87.0128V128.013C522.106 136.032 528.6 142.527 536.62 142.527H550.379L547.05 155.466L560.137 142.527H583.737C591.756 142.527 598.251 136.032 598.251 128.013V87.0128C598.251 78.9932 591.756 72.4988 583.737 72.4988Z" fill="#1877F2"/>
<path opacity="0.7" d="M583.737 72.4988H536.62C528.6 72.4988 522.106 78.9932 522.106 87.0128V128.013C522.106 136.032 528.6 142.527 536.62 142.527H550.379L547.05 155.466L560.137 142.527H583.737C591.756 142.527 598.251 136.032 598.251 128.013V87.0128C598.251 78.9932 591.756 72.4988 583.737 72.4988Z" fill="white"/>
<path d="M576.713 123.87C585.846 114.737 585.846 99.9299 576.713 90.7971C567.58 81.6642 552.773 81.6642 543.64 90.7971C534.507 99.9299 534.507 114.737 543.64 123.87C552.773 133.003 567.58 133.003 576.713 123.87Z" fill="#1877F2"/>
<path d="M557.726 117.779C557.103 117.779 556.496 117.5 556.086 117.025L546.919 106.217C546.148 105.315 546.263 103.954 547.165 103.183C548.067 102.412 549.428 102.527 550.199 103.429L557.743 112.302L570.19 97.64C570.961 96.738 572.322 96.6232 573.224 97.394C574.126 98.1648 574.241 99.526 573.47 100.428L559.383 117.025C558.956 117.5 558.366 117.779 557.726 117.779Z" fill="white"/>
<path d="M575.57 325.469C575.57 325.469 547.017 321.877 503.754 333.734C503.754 333.734 496.784 256.425 497.62 245.814C498.457 235.203 564.401 238.303 564.401 238.303C564.401 238.303 566.107 269.25 570.354 287.913C574.602 306.576 577.751 321.894 575.57 325.469Z" fill="#1877F2"/>
<path opacity="0.2" d="M575.57 325.469C575.57 325.469 547.017 321.877 503.754 333.734C503.754 333.734 496.784 256.425 497.62 245.814C498.457 235.203 564.401 238.303 564.401 238.303C564.401 238.303 566.107 269.25 570.354 287.913C574.602 306.576 577.751 321.894 575.57 325.469Z" fill="black"/>
<path d="M482.893 581.424L494.537 584.72L497.309 566.598L498.801 556.906L487.157 553.609L485.173 566.598L482.893 581.424Z" fill="#E4897B"/>
<path d="M549.838 582.375L561.843 583.966L561.958 566.598L562.04 555.807L550.018 554.232L549.936 566.598L549.838 582.375Z" fill="#E4897B"/>
<path opacity="0.2" d="M550.018 554.232L549.936 566.598H561.958L562.04 555.807L550.018 554.232Z" fill="black"/>
<path opacity="0.2" d="M485.173 566.598H497.309L498.801 556.906L487.157 553.609L485.173 566.598Z" fill="black"/>
<path d="M431.2 252.095L419.638 248.684L421.754 261.886C421.754 261.886 432.25 264.313 433.267 258.852L431.2 252.095Z" fill="#E4897B"/>
<path d="M408.093 251.734L413.767 262.476L421.754 261.87L419.638 248.668L408.093 251.734Z" fill="#E4897B"/>
<path d="M447.158 255.457L428.166 251.21L426.444 260.443L443.681 264.641L447.158 255.457Z" fill="#E4897B"/>
<path d="M504.607 247.142C504.607 247.142 504.197 247.634 503.492 248.471C501.097 251.275 495.242 258.048 489.24 263.887C484.32 268.643 479.334 272.792 476.087 273.628C466.788 276.023 432.988 266.068 432.988 266.068L436.481 252.358C436.481 252.358 467.969 256.54 470.413 256.54C472.266 256.54 491.421 228.791 496.062 226.511L504.607 247.142Z" fill="#1877F2"/>
<path opacity="0.2" d="M503.492 248.471C501.097 251.275 495.242 258.048 489.24 263.887C490.454 254.276 493.98 245.453 498.621 239.877C499.113 239.287 499.605 238.795 500.097 238.434L503.492 248.471Z" fill="black"/>
<path d="M483.041 579.603L496.259 579.242C496.751 579.226 497.194 579.554 497.325 580.03L500.097 590.673C500.392 591.772 499.572 592.854 498.424 592.871C493.652 592.92 486.747 592.822 480.745 592.986C473.742 593.182 469.281 592.838 461.048 593.051C456.079 593.182 454.521 588.213 456.588 587.705C465.985 585.392 472.135 585.852 480.138 580.604C481.024 580.046 481.991 579.636 483.041 579.603Z" fill="#263238"/>
<path d="M481.893 581.309C481.876 581.309 481.876 581.325 481.86 581.325C479.925 581.768 476.464 582.326 475.103 581.194C474.693 580.85 474.496 580.39 474.513 579.816C474.529 579.472 474.677 579.21 474.956 579.046C476.399 578.176 481.352 580.522 481.909 580.784C482.024 580.833 482.09 580.948 482.073 581.079C482.073 581.178 482.008 581.26 481.893 581.309ZM475.366 579.488C475.333 579.505 475.3 579.521 475.267 579.538C475.152 579.603 475.103 579.702 475.103 579.849C475.087 580.243 475.218 580.538 475.48 580.751C476.251 581.391 478.252 581.456 480.909 580.932C478.941 580.079 476.268 579.144 475.366 579.488Z" fill="#1877F2"/>
<path d="M481.893 581.309C481.827 581.342 481.745 581.342 481.68 581.309C480.187 580.702 477.202 578.16 477.383 576.799C477.432 576.471 477.645 576.077 478.416 575.979C479.006 575.897 479.548 576.061 480.023 576.422C481.614 577.635 482.057 580.882 482.073 581.014C482.09 581.112 482.04 581.21 481.958 581.276C481.958 581.276 481.926 581.292 481.893 581.309ZM478.219 576.602C477.99 576.684 477.973 576.815 477.957 576.864C477.858 577.684 479.892 579.685 481.417 580.538C481.22 579.587 480.728 577.668 479.679 576.864C479.318 576.586 478.924 576.471 478.498 576.536C478.383 576.536 478.285 576.569 478.219 576.602Z" fill="#1877F2"/>
<path d="M550.314 579.603L563.532 579.242C564.024 579.226 564.467 579.554 564.598 580.03L567.37 590.673C567.665 591.772 566.845 592.854 565.697 592.871C560.924 592.92 554.02 592.822 548.018 592.986C541.015 593.182 536.554 592.838 528.321 593.051C523.352 593.182 521.794 588.213 523.86 587.705C533.258 585.392 539.408 585.852 547.411 580.604C548.296 580.046 549.264 579.636 550.314 579.603Z" fill="#263238"/>
<path d="M549.182 581.309C549.166 581.309 549.166 581.325 549.149 581.325C547.214 581.768 543.754 582.326 542.392 581.194C541.982 580.85 541.786 580.39 541.802 579.816C541.818 579.472 541.966 579.21 542.245 579.046C543.688 578.176 548.641 580.522 549.198 580.784C549.313 580.833 549.379 580.948 549.362 581.079C549.346 581.178 549.28 581.26 549.182 581.309ZM542.638 579.488C542.606 579.505 542.573 579.521 542.54 579.538C542.425 579.603 542.376 579.702 542.376 579.849C542.36 580.243 542.491 580.538 542.753 580.751C543.524 581.391 545.525 581.456 548.182 580.932C546.214 580.079 543.54 579.144 542.638 579.488Z" fill="#1877F2"/>
<path d="M549.182 581.309C549.116 581.342 549.034 581.342 548.969 581.309C547.476 580.702 544.492 578.16 544.672 576.799C544.705 576.471 544.934 576.077 545.705 575.979C546.296 575.897 546.837 576.061 547.312 576.422C548.903 577.635 549.346 580.882 549.362 581.014C549.379 581.112 549.33 581.21 549.248 581.276C549.231 581.276 549.215 581.292 549.182 581.309ZM545.492 576.602C545.262 576.684 545.246 576.815 545.23 576.864C545.131 577.684 547.165 579.685 548.69 580.538C548.493 579.587 548.001 577.668 546.952 576.864C546.591 576.586 546.197 576.471 545.771 576.536C545.672 576.536 545.574 576.569 545.492 576.602Z" fill="#1877F2"/>
<path d="M574.602 318.417C580.965 346.002 570.043 562.892 570.043 562.892H548.952L539.932 382.131L506.706 562.892L484.156 561.252C498.9 421.228 511.921 337.638 511.921 337.638L511.888 327.076L574.602 318.417Z" fill="#263238"/>
<path opacity="0.4" d="M484.172 561.252L506.722 562.892L532.864 420.605L539.932 382.147L548.952 562.892H570.043C570.043 562.892 580.965 346.002 574.602 318.433L511.905 327.076L511.938 337.638C511.938 337.638 498.916 421.228 484.172 561.252Z" fill="white"/>
<path d="M563.237 216.31C562.482 229.824 563.056 243.288 564.237 255.834C565.106 265.018 566.336 273.694 567.632 281.517C570.666 299.868 574.11 313.628 574.602 318.433C565.418 319.696 530.781 324.485 511.905 327.076C489.043 263.149 497.653 225.954 497.653 225.954C497.653 225.954 504.197 223.166 512.036 221.034C513.069 220.755 514.119 220.492 515.201 220.246C522.155 218.639 533.799 217.294 541.851 216.573C543.54 216.425 545.279 216.31 546.952 216.228C555.512 215.818 563.237 216.31 563.237 216.31Z" fill="#263238"/>
<path d="M529.682 187.545C530.142 196.319 531.076 212.784 538.374 216.966C538.374 216.966 533.832 225.609 524.008 226.495C516.579 227.167 517.071 219.836 517.071 219.836C521.368 216.622 520.334 211.194 517.071 205.076L529.682 187.545Z" fill="#E4897B"/>
<path opacity="0.2" d="M524.533 194.695L517.054 205.06C517.842 206.503 518.53 207.996 519.022 209.488C522.483 208.11 526.419 202.994 525.861 199.172C525.582 197.254 525.058 195.482 524.533 194.695Z" fill="black"/>
<path d="M497.702 169.882C496.276 174.441 497.063 183.789 503.41 180.739C509.756 177.688 500.162 162.059 497.702 169.882Z" fill="#263238"/>
<path d="M530.502 176.032C531.208 187.725 532.208 194.548 527.042 201.173C519.285 211.128 504.262 207.422 500.064 196.138C496.292 185.987 495.784 168.554 506.624 162.666C517.3 156.844 529.797 164.339 530.502 176.032Z" fill="#E4897B"/>
<path d="M522.302 169.669V156.598C522.302 156.598 536.21 155.565 535.586 162.682C543.294 166.504 539.654 178.492 529.305 184.363C523.631 179.82 524.287 168.898 524.287 168.898C523.664 169.177 522.991 169.423 522.302 169.669Z" fill="#263238"/>
<path d="M536.16 185.167C535.603 188.266 533.651 190.808 531.486 192.235C528.223 194.384 525.386 191.743 525.271 188.053C525.172 184.724 526.73 179.591 530.486 178.935C534.192 178.295 536.8 181.624 536.16 185.167Z" fill="#E4897B"/>
<path d="M513.233 181.264C513.348 182.215 512.938 183.035 512.315 183.1C511.692 183.166 511.101 182.461 510.986 181.51C510.872 180.558 511.282 179.738 511.905 179.673C512.512 179.607 513.118 180.312 513.233 181.264Z" fill="#263238"/>
<path d="M502.508 182.461C502.622 183.412 502.212 184.232 501.589 184.298C500.966 184.363 500.376 183.658 500.261 182.707C500.146 181.756 500.556 180.936 501.179 180.87C501.786 180.804 502.393 181.51 502.508 182.461Z" fill="#263238"/>
<path d="M505.968 182.543C505.968 182.543 504.394 188.037 502.311 190.858C504.148 192.153 506.919 191.12 506.919 191.12L505.968 182.543Z" fill="#DE5753"/>
<path d="M512.446 194.17C512.069 194.269 511.659 194.334 511.216 194.384C511.068 194.4 510.921 194.285 510.904 194.138C510.888 193.99 511.003 193.842 511.15 193.826C515.316 193.35 516.907 190.251 516.923 190.218C516.989 190.087 517.153 190.021 517.3 190.087C517.448 190.152 517.497 190.316 517.432 190.464C517.35 190.595 515.988 193.285 512.446 194.17Z" fill="#263238"/>
<path d="M516.12 177.442C515.923 177.492 515.726 177.442 515.578 177.278C513.84 175.474 511.806 175.819 511.79 175.819C511.478 175.868 511.183 175.671 511.134 175.376C511.068 175.081 511.282 174.786 511.577 174.72C511.692 174.704 514.234 174.261 516.398 176.508C516.612 176.737 516.612 177.082 516.382 177.295C516.284 177.36 516.202 177.41 516.12 177.442Z" fill="#263238"/>
<path d="M497.44 179.296C497.342 179.328 497.227 179.312 497.112 179.279C496.817 179.181 496.669 178.853 496.768 178.558C497.784 175.638 500.277 175.032 500.392 174.982C500.687 174.917 500.999 175.097 501.081 175.392C501.163 175.688 500.982 175.999 500.671 176.065C500.572 176.081 498.637 176.59 497.834 178.935C497.768 179.115 497.62 179.246 497.44 179.296Z" fill="#263238"/>
<path d="M528.469 174.523C528.469 174.523 520.318 171.538 516.53 166.782C516.53 166.782 509.084 168.734 507.559 171.752C507.559 171.752 504.984 169.587 506.903 166.782C506.903 166.782 501.327 167.963 500.228 171.752C500.228 171.752 497.44 170.8 497.62 166.782C497.62 166.782 495.144 167.717 494.357 171.752C494.357 171.752 488.19 158.943 508.51 155.27C508.51 155.27 506.903 154.597 503.754 154.466C503.754 154.466 517.924 148.742 529.174 153.99C540.424 159.222 538.374 169.275 528.469 174.523Z" fill="#263238"/>
<path d="M579.44 329.454L559.776 332.078C559.776 332.078 551.658 275.35 548.083 257.032V217.901L558.366 215.195L566.287 217.901C568.19 224.248 569.862 232.579 571.322 241.845C572.29 247.979 573.159 254.539 573.93 261.181C574.996 270.234 575.881 279.45 576.636 288.077C577.816 302 578.604 314.333 579.03 321.844C579.309 326.633 579.44 329.454 579.44 329.454Z" fill="#1877F2"/>
<path d="M548.083 257.032C548.083 257.032 549.723 229.43 558.366 215.195C558.366 215.195 558.153 211.128 556.414 210.472C554.692 209.816 548.083 213.719 548.083 213.719C548.083 213.719 543.967 210.915 543.048 212.21C542.13 213.506 539.965 222.28 548.083 257.032Z" fill="#1877F2"/>
<path opacity="0.7" d="M548.083 257.032C548.083 257.032 549.723 229.43 558.366 215.195C558.366 215.195 558.153 211.128 556.414 210.472C554.692 209.816 548.083 213.719 548.083 213.719C548.083 213.719 543.967 210.915 543.048 212.21C542.13 213.506 539.965 222.28 548.083 257.032Z" fill="white"/>
<path d="M503.344 337.047L505.591 338.671C505.591 338.671 502.344 320.385 503.656 274.137C503.721 271.906 503.803 269.758 503.885 267.708C505.558 228.578 511.626 221.46 512.02 221.034L506.345 222.969L496.062 226.511C493.028 259.902 503.344 337.047 503.344 337.047Z" fill="#1877F2"/>
<path d="M504.23 260.968C504.23 260.968 498.555 234.154 500.244 224.904C501.934 215.654 507.985 219.771 507.985 219.771C507.985 219.771 513.545 215.277 515.201 220.23C515.201 220.23 507.559 225.609 504.23 260.968Z" fill="#1877F2"/>
<path opacity="0.7" d="M504.23 260.968C504.23 260.968 498.555 234.154 500.244 224.904C501.934 215.654 507.985 219.771 507.985 219.771C507.985 219.771 513.545 215.277 515.201 220.23C515.201 220.23 507.559 225.609 504.23 260.968Z" fill="white"/>
<path opacity="0.2" d="M573.93 261.181C565.533 256.474 564.418 244.19 564.418 244.19C564.926 243.994 568.042 242.928 571.322 241.845C572.29 247.979 573.159 254.539 573.93 261.181Z" fill="black"/>
<path opacity="0.2" d="M532.864 420.605L539.932 382.147L538.571 361.795C538.571 361.795 528.879 397.088 532.864 420.605Z" fill="black"/>
<path opacity="0.2" d="M579.03 321.844C573.749 321.484 569.174 321.139 569.174 321.139L568.173 299.672C568.173 299.672 569.879 298.245 573.7 298.655C573.7 298.655 575.422 294.456 576.636 288.077C577.816 302 578.604 314.333 579.03 321.844Z" fill="black"/>
<path d="M580.834 288.06L570.551 304.575L578.686 309.249L588.345 294.374L580.834 288.06Z" fill="#E4897B"/>
<path d="M565.877 217.704C572.798 218.459 602.22 258.836 603.515 271.004C604.811 283.173 586.23 304.182 586.23 304.182L573.815 296.884C573.815 296.884 586.426 277.515 587.066 272.349C587.706 267.183 564.024 245.994 564.024 245.994C564.024 245.994 561.433 239.762 561.105 230.808C560.793 221.837 565.877 217.704 565.877 217.704Z" fill="#1877F2"/>
<path d="M568.173 299.672C568.173 299.672 578.751 301.935 583.015 308.593C583.015 308.593 578.604 322.451 575.438 323.96C572.273 325.469 564.418 325.469 564.418 325.469C564.418 325.469 563.909 310.053 568.173 299.672Z" fill="#1877F2"/>
</g>
<defs>
<clipPath id="clip0_741_1465">
<rect width="709" height="611" fill="white"/>
</clipPath>
</defs>
</svg>
