<svg width="33" height="33" viewBox="0 0 33 33" fill="none" xmlns="http://www.w3.org/2000/svg">
<path fill-rule="evenodd" clip-rule="evenodd" d="M5.74147 0.161255H26.7366C29.8358 0.161255 32.387 2.67462 32.387 5.77382V26.769C32.387 29.8682 29.8547 32.4193 26.7366 32.4193H5.74147C2.64228 32.4193 0.128906 29.8682 0.128906 26.769V5.77382C0.128906 2.67462 2.64228 0.161255 5.74147 0.161255Z" fill="url(#paint0_linear_23_332)"/>
<path fill-rule="evenodd" clip-rule="evenodd" d="M20.6152 7.37323L25.674 11.5863L14.2417 25.206L10.8649 26.5504L8.48934 24.5584L9.1879 20.9647L20.6152 7.37323Z" fill="url(#paint1_linear_23_332)"/>
<path fill-rule="evenodd" clip-rule="evenodd" d="M20.6153 7.3732L25.6641 11.6426L27.4652 9.52352C28.423 8.38703 28.3017 6.62252 27.1421 5.63155L26.3083 4.93103C25.1437 3.96822 23.3742 4.11763 22.4113 5.28227L20.6153 7.3732Z" fill="url(#paint2_linear_23_332)"/>
<path fill-rule="evenodd" clip-rule="evenodd" d="M8.48893 24.5584L7.87065 27.7016L10.8645 26.5504L8.48893 24.5584Z" fill="url(#paint3_linear_23_332)"/>
<defs>
<linearGradient id="paint0_linear_23_332" x1="0.128906" y1="16.2871" x2="32.3805" y2="16.2871" gradientUnits="userSpaceOnUse">
<stop stop-color="#1978C6"/>
</linearGradient>
<linearGradient id="paint1_linear_23_332" x1="10.012" y1="15.9448" x2="24.4388" y2="18.5159" gradientUnits="userSpaceOnUse">
<stop stop-color="#E6A800"/>
<stop offset="0.561" stop-color="#F2C110"/>
<stop offset="1" stop-color="#FFDA20"/>
</linearGradient>
<linearGradient id="paint2_linear_23_332" x1="20.6555" y1="7.15105" x2="28.0173" y2="8.46305" gradientUnits="userSpaceOnUse">
<stop stop-color="#D0054A"/>
<stop offset="0.478" stop-color="#E71E63"/>
<stop offset="1" stop-color="#FF377C"/>
</linearGradient>
<linearGradient id="paint3_linear_23_332" x1="8.15749" y1="26.1222" x2="10.8551" y2="26.603" gradientUnits="userSpaceOnUse">
<stop stop-color="#343434"/>
<stop offset="1" stop-color="#666666"/>
</linearGradient>
</defs>
</svg>
