<svg width="33" height="33" viewBox="0 0 33 33" fill="none" xmlns="http://www.w3.org/2000/svg">
<g clip-path="url(#clip0_23_339)">
<path d="M26.8446 6.39865V4.88656C26.8446 2.28103 24.7248 0.161255 22.1193 0.161255H10.5266C7.92104 0.161255 5.80127 2.28103 5.80127 4.88656V6.39865H26.8446ZM7.69139 20.2595V30.5292C7.69139 31.573 8.5376 32.4193 9.58151 32.4193H23.0644C24.1083 32.4193 24.9545 31.573 24.9545 30.5292V20.2595H7.69139ZM18.8431 28.3241H13.8028C13.2809 28.3241 12.8577 27.9009 12.8577 27.379C12.8577 26.8571 13.2809 26.4339 13.8028 26.4339H18.8431C19.365 26.4339 19.7882 26.8571 19.7882 27.379C19.7882 27.9009 19.365 28.3241 18.8431 28.3241ZM18.8431 24.2918H13.8028C13.2809 24.2918 12.8577 23.8687 12.8577 23.3467C12.8577 22.8248 13.2809 22.4017 13.8028 22.4017H18.8431C19.365 22.4017 19.7882 22.8248 19.7882 23.3467C19.7882 23.8687 19.365 24.2918 18.8431 24.2918Z" fill="#1570BE"/>
<path d="M27.7266 8.28882H4.98214C2.37661 8.28882 0.256836 10.4086 0.256836 13.0141V20.5746C0.256836 23.1801 2.37661 25.2999 4.98214 25.2999H5.80119V20.2596H5.23415C4.71223 20.2596 4.28909 19.8364 4.28909 19.3145C4.28909 18.7926 4.71223 18.3695 5.23415 18.3695H27.4116C27.9335 18.3695 28.3566 18.7926 28.3566 19.3145C28.3566 19.8364 27.9335 20.2596 27.4116 20.2596H26.8445V25.2999H27.7266C30.3321 25.2999 32.4519 23.1801 32.4519 20.5746V13.0141C32.4519 10.4086 30.3321 8.28882 27.7266 8.28882ZM8.25835 14.2112H5.23415C4.71223 14.2112 4.28909 13.7881 4.28909 13.2661C4.28909 12.7442 4.71223 12.3211 5.23415 12.3211H8.25835C8.78027 12.3211 9.20341 12.7442 9.20341 13.2661C9.20341 13.7881 8.78027 14.2112 8.25835 14.2112Z" fill="#1570BE"/>
</g>
<defs>
<clipPath id="clip0_23_339">
<rect width="32.2581" height="32.2581" fill="white" transform="translate(0.225586 0.161255)"/>
</clipPath>
</defs>
</svg>
