<svg width="33" height="33" viewBox="0 0 33 33" fill="none" xmlns="http://www.w3.org/2000/svg">
<path d="M31.2802 7.51018L25.2318 1.46179C25.1376 1.36836 25.0259 1.29444 24.9031 1.24428C24.7802 1.19411 24.6487 1.16868 24.516 1.16945H22.4999V9.23397C22.4999 9.76868 22.2875 10.2815 21.9094 10.6596C21.5313 11.0377 21.0185 11.2501 20.4838 11.2501H12.4193C11.8846 11.2501 11.3718 11.0377 10.9937 10.6596C10.6156 10.2815 10.4031 9.76868 10.4031 9.23397V1.16945H4.35476C3.55269 1.16945 2.78348 1.48807 2.21633 2.05522C1.64919 2.62236 1.33057 3.39158 1.33057 4.19364V28.3872C1.33057 29.1893 1.64919 29.9585 2.21633 30.5256C2.78348 31.0928 3.55269 31.4114 4.35476 31.4114H6.37089V22.3388C6.37089 21.5367 6.68951 20.7675 7.25665 20.2004C7.8238 19.6332 8.59302 19.3146 9.39508 19.3146H23.508C24.31 19.3146 25.0793 19.6332 25.6464 20.2004C26.2136 20.7675 26.5322 21.5367 26.5322 22.3388V31.4114H28.5483C29.3504 31.4114 30.1196 31.0928 30.6867 30.5256C31.2539 29.9585 31.5725 29.1893 31.5725 28.3872V8.2259C31.5733 8.09323 31.5478 7.96172 31.4977 7.8389C31.4475 7.71608 31.3736 7.60437 31.2802 7.51018Z" fill="#1570BE"/>
<path d="M12.4195 1.16943H20.484V9.23395H12.4195V1.16943ZM23.5082 21.3307H9.39527C9.12792 21.3307 8.87151 21.4369 8.68246 21.626C8.49341 21.815 8.38721 22.0714 8.38721 22.3388V31.4114H24.5162V22.3388C24.5162 22.0714 24.41 21.815 24.221 21.626C24.0319 21.4369 23.7755 21.3307 23.5082 21.3307Z" fill="#1570BE"/>
</svg>
